<svg width="475" height="352" viewBox="0 0 475 352" fill="none" xmlns="http://www.w3.org/2000/svg">
<path d="M431.499 339.845C431.499 339.845 495.793 269.984 473.18 188.549C458.41 135.358 409.437 167.583 412.045 81.3545C414.653 -4.87448 267.745 -13.8365 227.017 11.1813C186.287 36.1972 185.425 52.1807 101.321 42.2483C17.2166 32.3138 -19.3842 108.129 24.1915 171.822C62.3498 227.601 -61.9496 222.004 11.9412 340L431.499 339.845Z" fill="#EBF3FA"/>
<path d="M350.714 89.4601H350.716C356.838 69.0823 378.297 57.5335 398.647 63.6643C418.996 69.7969 430.526 91.2871 424.404 111.665C418.28 132.043 396.821 143.591 376.473 137.461C356.125 131.328 344.592 109.838 350.714 89.4601ZM338.115 87.9787C331.187 115.283 347.731 143.14 374.995 150.079C402.258 157.018 430.075 140.449 437.004 113.146C443.933 85.8421 427.388 57.9853 400.125 51.0463C372.86 44.1073 345.044 60.6763 338.115 87.9787Z" fill="#F7CC7F"/>
<path d="M336.362 87.534C339.838 73.8378 348.43 62.3178 360.557 55.0962C372.684 47.8728 386.894 45.8118 400.569 49.2912C414.245 52.7724 425.749 61.3764 432.961 73.521C440.173 85.6656 442.231 99.8964 438.756 113.591C435.28 127.287 426.689 138.807 414.562 146.029C402.434 153.252 388.224 155.313 374.55 151.834C360.875 148.352 349.372 139.748 342.159 127.604C334.946 115.459 332.888 101.228 336.362 87.534ZM302.763 88.0578C303.004 89.2782 304.108 89.7048 306.829 90.7848C311.696 92.7198 316.567 94.653 321.363 96.7554C322.118 97.0866 322.873 98.2656 322.966 99.1224C323.52 104.227 323.766 109.366 324.374 114.462C324.56 116.041 324.408 116.881 322.99 117.772C317.326 121.336 311.759 125.06 306.22 128.686C307.604 134.635 314.583 148.009 318.313 151.749C324.188 149.272 330.229 146.833 336.168 144.162C338.016 143.33 338.959 143.491 340.5 144.965C344.071 148.385 347.968 151.488 351.902 154.496C353.495 155.714 354.345 156.668 353.829 158.863C352.49 164.551 351.496 170.32 350.254 176.031C349.92 177.566 350.211 178.526 351.725 178.996C358.846 181.202 365.969 183.4 373.09 185.605C374.841 186.147 375.11 184.705 375.547 183.674C377.76 178.448 380.001 173.234 382.036 167.938C382.8 165.951 383.824 165.296 385.981 165.229C391.688 165.049 397.384 164.498 403.522 164.063C407.153 169.583 411.161 175.678 415.28 181.942C423.552 179.199 431.001 175.093 438.055 169.661C435.262 162.938 432.467 156.213 430.005 150.287C434.229 144.927 438.253 140.049 441.979 134.953C443.057 133.479 443.904 133.238 445.522 133.592C451.14 134.829 456.799 135.889 462.426 137.086C463.641 137.345 464.535 137.392 465.158 136.062C468.305 129.335 470.847 122.434 471.873 115.018C472.102 113.364 471.508 112.712 470.148 112.149C464.675 109.885 459.243 107.516 453.759 105.275C452.431 104.731 451.875 104.166 451.755 102.544C451.336 96.9156 450.675 91.2978 449.871 85.7106C449.666 84.2814 450.119 83.727 451.122 83.0646C456.712 79.3782 462.275 75.6504 467.989 71.8416C465.09 63.6894 461.391 56.1204 456.094 49.1634C449.246 52.0164 442.443 54.8532 435.933 57.5658C430.447 53.01 425.136 48.5964 419.452 43.8768C420.459 38.844 421.661 33.0552 422.767 27.2484C423.673 22.482 424.354 23.1084 419.573 21.0996C419.116 20.907 418.73 20.5506 418.311 20.2698C414.035 18.981 409.757 17.6922 405.481 16.4034C404.482 16.29 403.434 16.3314 402.492 16.0326C400.044 15.255 398.665 15.813 397.689 18.4392C395.656 23.9112 393.28 29.2572 390.919 34.5996C390.608 35.2998 389.592 36.0288 388.825 36.126C383.821 36.7596 378.747 36.9612 373.797 37.854C371.374 38.2914 370.355 37.629 369.157 35.7372C365.768 30.3714 362.157 25.1478 358.278 19.3356C350.608 23.3694 343.124 27.3042 335.557 31.284C336.152 32.7942 336.479 33.669 336.838 34.5312C339.047 39.8466 341.212 45.1854 343.516 50.4612C344.17 51.9588 343.838 52.8012 342.813 54.0198C339.294 58.2066 336.044 62.6202 332.553 66.8322C332.012 67.4856 330.675 67.9446 329.825 67.797C325.179 66.9888 320.576 65.9232 315.944 65.0214C312.196 64.2924 310.801 64.035 309.615 65.2608L302.763 88.0578Z" fill="#F7CC7F"/>
<path d="M34.6622 140.751C29.5835 130.604 28.754 119.086 32.3263 108.315C35.8985 97.5456 43.4452 88.8138 53.576 83.727C63.7065 78.6402 75.2088 77.8104 85.9637 81.387C96.7184 84.9654 105.438 92.5218 110.517 102.668C115.596 112.813 116.425 124.331 112.853 135.103C109.281 145.874 101.734 154.606 91.6032 159.691C81.4725 164.777 69.9703 165.609 59.2156 162.031C48.4608 158.454 39.7409 150.896 34.6622 140.751ZM14.5355 158.758C15.322 159.372 16.2152 159.05 18.4351 158.274C22.4063 156.884 26.3793 155.497 30.395 154.247C31.0272 154.051 32.1038 154.37 32.611 154.841C35.6267 157.648 38.4738 160.639 41.5169 163.415C42.4602 164.273 42.8077 164.866 42.4153 166.153C40.8467 171.299 39.4219 176.49 37.9601 181.609C41.9248 184.491 53.1821 188.939 57.4101 189.247C59.6786 184.649 62.0673 179.987 64.2697 175.239C64.9552 173.761 65.6123 173.362 67.3213 173.446C71.286 173.642 75.2807 173.477 79.249 173.23C80.856 173.131 81.8726 173.264 82.7109 174.868C84.884 179.026 87.3085 183.053 89.5522 187.175C90.1552 188.284 90.8363 188.714 92.0017 188.201C97.4841 185.792 102.963 183.377 108.445 180.967C109.793 180.374 109.2 179.357 108.923 178.501C107.524 174.163 106.147 169.816 104.604 165.53C104.024 163.921 104.303 162.983 105.577 161.807C108.948 158.693 112.117 155.36 115.616 151.866C120.718 153.306 126.351 154.897 132.142 156.532C135.724 150.511 138.092 144.095 139.525 137.083C134.299 134.473 129.072 131.861 124.465 129.559C124.217 124.079 124.1 119 123.688 113.944C123.569 112.48 123.955 111.886 125.125 111.251C129.186 109.044 133.178 106.709 137.223 104.474C138.098 103.99 138.664 103.549 138.344 102.413C136.725 96.6707 134.646 91.143 131.375 86.0993C130.646 84.9762 129.944 84.8916 128.822 85.266C124.31 86.7726 119.768 88.1928 115.262 89.7192C114.17 90.0882 113.536 90.0378 112.611 89.1162C109.402 85.9194 106.052 82.8557 102.631 79.8857C101.757 79.1261 101.74 78.5519 102.002 77.6213C103.461 72.4391 104.881 67.248 106.352 61.9254C100.312 58.5018 94.0939 55.8539 87.2244 54.4175C84.5646 59.7545 81.9219 65.0592 79.393 70.1333C73.6699 70.2558 68.1287 70.3727 62.1992 70.497C60.1691 66.9114 57.8605 62.7641 55.4827 58.6565C53.5311 55.2851 54.2743 55.3067 50.3161 56.6028C49.9385 56.7269 49.5157 56.7126 49.1142 56.763C45.8408 58.2318 42.5673 59.7006 39.2941 61.1694C38.6275 61.6266 38.0126 62.2044 37.2844 62.5194C35.3898 63.3366 34.8454 64.4004 35.6315 66.5082C37.2693 70.9002 38.6334 75.3983 40.0025 79.8857C40.1817 80.4743 39.9473 81.4518 39.5324 81.9144C36.8265 84.9347 33.8518 87.7284 31.314 90.8766C30.0724 92.4174 29.1054 92.5524 27.3865 92.0322C22.5115 90.5598 17.576 89.289 12.1708 87.8022C9.63022 94.2894 7.15162 100.618 4.64532 107.019C5.79907 107.622 6.45746 107.98 7.12753 108.315C11.2608 110.38 15.376 112.484 19.545 114.473C20.7288 115.038 20.9682 115.724 20.986 117.004C21.0476 121.399 21.3915 125.789 21.4828 130.185C21.497 130.867 20.9254 131.85 20.3325 132.208C17.0858 134.163 13.7321 135.94 10.4457 137.83C7.78699 139.36 6.80525 139.937 6.72779 141.307L14.5355 158.758Z" fill="#50BFA5"/>
<path d="M63.6614 42.4008L65.2751 39.4344L63.7566 36.4176C63.5837 36.0738 63.8781 35.6796 64.2549 35.7516L67.563 36.3762L69.9506 33.993C70.2226 33.7212 70.6863 33.8814 70.7354 34.263L71.1662 37.6164L74.1603 39.1608C74.5013 39.3372 74.4936 39.8286 74.147 39.9942L71.1053 41.4414L70.568 44.7786C70.5069 45.1584 70.0384 45.3024 69.775 45.0234L67.4645 42.5646L64.1382 43.083C63.7593 43.1424 63.4777 42.7392 63.6614 42.4008Z" fill="#F7CC7F"/>
<path d="M244.745 54.6642L245.976 52.6518L244.017 51.8562L242.786 53.8686L244.745 54.6642ZM239.752 56.4606L241.131 54.2196L240.023 53.7696C239.783 53.6724 239.666 53.3952 239.763 53.1522C239.862 52.911 240.137 52.794 240.379 52.8912L241.655 53.4096L242.887 51.3972L241.706 50.9184C241.463 50.8194 241.346 50.5422 241.445 50.301C241.544 50.058 241.819 49.941 242.062 50.04L243.413 50.589L244.844 48.2832C244.964 48.0888 245.209 48.0078 245.423 48.0942L245.629 48.1788C245.899 48.2886 246.007 48.6162 245.854 48.8646L244.524 51.0408L246.483 51.8364L247.914 49.5306C248.036 49.3344 248.281 49.2552 248.493 49.3416L248.719 49.4334C248.989 49.5432 249.097 49.8708 248.944 50.1192L247.614 52.2954L248.721 52.7436C248.962 52.8426 249.079 53.118 248.982 53.361C248.883 53.604 248.608 53.721 248.365 53.622L247.089 53.1036L245.876 55.125L247.058 55.6038C247.299 55.7028 247.416 55.9782 247.319 56.2212C247.22 56.4642 246.943 56.5812 246.703 56.4822L245.351 55.9332L243.89 58.311C243.767 58.5072 243.523 58.5882 243.309 58.5018L243.068 58.4028C242.797 58.293 242.689 57.9654 242.842 57.7152L244.22 55.4742L242.261 54.6786L240.8 57.0546C240.678 57.2526 240.433 57.3336 240.219 57.2454L239.978 57.1482C239.707 57.0384 239.599 56.7108 239.752 56.4606Z" fill="#07345A"/>
<path d="M249.343 103.835C251.011 94.9608 259.547 89.1198 268.408 90.7902C277.271 92.4588 283.102 101.007 281.436 109.883C279.768 118.757 271.232 124.598 262.371 122.927C253.508 121.259 247.675 112.711 249.343 103.835ZM230.911 95.4774L229.047 105.406C229.201 105.91 229.687 106.04 230.884 106.375C233.024 106.97 235.167 107.566 237.284 108.238C237.619 108.344 237.991 108.806 238.068 109.165C238.532 111.292 238.866 113.45 239.351 115.573C239.502 116.231 239.475 116.591 238.916 117.032C236.686 118.793 234.505 120.614 232.331 122.393C233.183 124.841 236.729 130.171 238.471 131.58C240.839 130.27 243.279 128.968 245.664 127.573C246.406 127.139 246.812 127.165 247.528 127.717C249.188 128.999 250.971 130.133 252.767 131.225C253.495 131.666 253.896 132.032 253.777 132.98C253.468 135.441 253.308 137.92 253.04 140.386C252.968 141.048 253.135 141.44 253.795 141.57C256.897 142.18 260.003 142.787 263.107 143.397C263.87 143.546 263.918 142.925 264.056 142.47C264.756 140.166 265.467 137.864 266.088 135.538C266.321 134.665 266.724 134.343 267.63 134.217C270.031 133.884 272.409 133.394 274.979 132.934C276.759 135.099 278.725 137.491 280.745 139.948C284.112 138.418 287.07 136.348 289.802 133.738C288.321 131.027 286.84 128.317 285.535 125.926C287.078 123.475 288.555 121.235 289.898 118.917C290.288 118.246 290.633 118.105 291.332 118.183C293.758 118.451 296.194 118.643 298.622 118.894C299.147 118.949 299.525 118.928 299.728 118.339C300.754 115.358 301.516 112.333 301.617 109.156C301.638 108.448 301.358 108.2 300.759 108.023C298.347 107.314 295.949 106.56 293.536 105.862C292.95 105.692 292.689 105.48 292.565 104.8C292.135 102.443 291.605 100.103 291.014 97.7814C290.863 97.1892 291.03 96.9336 291.424 96.6096C293.616 94.8024 295.795 92.9772 298.036 91.1124C296.446 87.804 294.546 84.7764 291.997 82.08C289.236 83.592 286.492 85.0968 283.867 86.535C281.347 84.8592 278.908 83.2374 276.299 81.5004C276.496 79.3332 276.742 76.8348 276.947 74.3346C277.116 72.2826 277.433 72.5166 275.324 71.8848C275.123 71.8236 274.943 71.6904 274.755 71.5914C272.892 71.2404 271.03 70.8894 269.166 70.5384C269.033 70.5384 268.899 70.5438 268.764 70.5492C268.467 70.5618 268.171 70.5744 267.889 70.5168C266.821 70.299 266.264 70.5978 265.971 71.7498C265.36 74.1492 264.597 76.5126 263.841 78.8724C263.74 79.182 263.345 79.5366 263.025 79.6122C260.942 80.1054 258.81 80.4186 256.761 81.0198C255.758 81.3132 255.3 81.0792 254.71 80.334C253.037 78.2244 251.279 76.1814 249.381 73.9044C246.325 75.9528 243.345 77.9508 240.331 79.9704C240.649 80.5806 240.827 80.9352 241.017 81.2826C242.189 83.4264 243.341 85.581 244.551 87.7032C244.894 88.3062 244.792 88.677 244.415 89.2368C243.119 91.1628 241.945 93.1716 240.662 95.1066C240.462 95.4072 239.919 95.661 239.554 95.6358C237.557 95.5044 235.566 95.2632 233.571 95.0904C231.957 94.9518 231.356 94.9068 230.911 95.4774Z" fill="#FFA961"/>
<path d="M166.088 41.049L171.958 41.7582L169.454 37.1952L166.088 41.049Z" fill="#355389"/>
<path d="M187.649 91.7173C187.466 93.7045 189.172 95.5188 191.062 95.8518C193.022 96.1938 194.767 94.9159 195.441 93.1087C196.771 89.5429 192.874 86.7295 190.762 88.8877C188.791 90.9019 189.414 93.8935 191.542 93.8953C192.346 93.8953 193.638 93.2202 193.126 92.2464C193.011 92.0268 192.687 92.043 192.569 92.2464C192.31 92.6856 192.331 92.7018 192.209 92.8008C192.017 92.9556 191.751 93.006 191.512 93.0024C189.342 92.9646 190.784 87.9966 193.34 89.2008C194.743 89.8614 195.157 91.4598 194.67 92.8548C194.202 94.1976 192.944 95.238 191.488 95.1444C189.75 95.0328 188.293 93.4327 188.181 91.7173C188.158 91.3717 187.682 91.3771 187.649 91.7173Z" fill="#FFA961"/>
<path d="M294.878 18.1405L296.634 18.8965C296.634 18.8965 299.564 18.2412 299.891 17.6886C300.22 17.1378 300.411 15.7446 300.82 15.7446C301.23 15.7428 302.005 15.9462 302.116 16.9218C302.195 17.631 301.007 19.5462 301.151 19.7748C301.241 19.9188 302.237 20.3814 302.97 20.7072C303.454 20.9214 303.777 21.3858 303.811 21.915V21.9168C303.835 22.2732 303.605 22.599 303.261 22.6962L302.727 22.8475L302.851 23.3928C302.943 23.7996 302.69 24.2028 302.287 24.2982L301.875 24.3936L301.978 24.7285C302.109 25.1605 301.839 25.6104 301.397 25.6968L301.04 25.7652L301.047 25.8588C301.076 26.2512 300.801 26.6005 300.416 26.6635L300.06 26.721L295.387 24.7105C294.948 24.5215 294.553 24.246 294.226 23.8986L292.698 22.9195C292.534 22.8133 292.471 22.6027 292.551 22.4245L294.364 18.3438C294.452 18.1458 294.68 18.0559 294.878 18.1405Z" fill="#50BFA5"/>
<path d="M245.545 101.894H213.825C210.579 101.894 207.945 104.53 207.945 107.78V118.188C207.945 121.439 210.579 124.076 213.825 124.076H245.545C248.791 124.076 251.423 121.439 251.423 118.188V107.78C251.423 104.53 248.791 101.894 245.545 101.894Z" fill="#739AF0"/>
<path d="M203.524 320.546L169.927 336.054V339.489H289.574V336.054L255.675 320.546H203.524Z" fill="#466EB6"/>
<path d="M203.524 320.575H255.695V254.077H203.524V320.575Z" fill="#466EB6"/>
<path d="M387.484 274.937V124.985C387.484 117.86 381.716 112.084 374.602 112.084H84.2782C77.1638 112.084 71.3963 117.86 71.3963 124.985V274.937H387.484Z" fill="#466EB6"/>
<path d="M169.927 339.489H289.574V336.054H169.927V339.489Z" fill="#335691"/>
<path d="M203.524 320.546H255.675V312.743H203.524V320.546Z" fill="#335691"/>
<path d="M71.3963 274.937V298.967C71.3963 303.964 74.6952 308.016 78.7649 308.016H380.114C384.185 308.016 387.484 303.964 387.484 298.967V274.937H71.3963Z" fill="#739AF0"/>
<path d="M232.873 107.786C232.873 109.408 231.56 110.723 229.938 110.723C228.317 110.723 227.005 109.408 227.005 107.786C227.005 106.162 228.317 104.846 229.938 104.846C231.56 104.846 232.873 106.162 232.873 107.786Z" fill="#233862"/>
<path d="M380.084 268.425V125.386C380.084 121.637 376.94 118.597 373.061 118.597H85.819C81.9399 118.597 78.7955 121.637 78.7955 125.386V268.425H380.084Z" fill="#CCE6FF"/>
<path d="M92.0266 256.685H273.116V130.143H92.0266V256.685Z" fill="#E9FFFF"/>
<path d="M273.115 144.959H92.0266V130.144H273.115V144.959Z" fill="#739AF0"/>
<path d="M285.773 257.618V202.739H294.091C295.087 205.767 296.435 208.701 298.133 211.484V215.388H285.773V257.618Z" fill="#AFD0FB"/>
<path d="M349.922 257.618H337.561V231.507C341.783 231.147 345.957 230.146 349.922 228.506V257.618Z" fill="#9AC1F9"/>
<path d="M332.659 257.618H320.299V229.358C324.305 230.744 328.477 231.503 332.659 231.637V257.618ZM330.774 226.692C327.21 226.384 323.678 225.56 320.299 224.219C323.676 225.56 327.211 226.384 330.774 226.692Z" fill="#9AC1F9"/>
<path d="M367.432 257.618H355.071V225.94C355.386 225.754 355.697 225.565 356.006 225.373C357.253 226.433 358.515 227.52 358.842 227.918C358.842 227.918 363.481 233.23 367.432 237.611V257.618ZM367.432 230.888L361.603 226.233L361.598 226.235C361.51 225.943 360.55 222.8 360.503 222.239C360.501 222.206 360.492 222.172 360.48 222.138C360.758 221.908 361.033 221.672 361.306 221.434L367.432 227.425V230.888ZM367.432 218.151L365.937 216.686C366.456 216.059 366.954 215.424 367.432 214.776V218.151ZM360.111 215.914C360.122 215.903 360.135 215.89 360.145 215.879C360.135 215.89 360.122 215.903 360.111 215.914Z" fill="#9AC1F9"/>
<path d="M315.397 257.618H303.037V217.991C303.558 218.561 304.101 219.121 304.66 219.668C307.908 222.845 311.538 225.391 315.397 227.304V257.618ZM315.397 221.841C312.951 220.423 310.629 218.7 308.486 216.675C310.629 218.7 312.951 220.421 315.397 221.841ZM308.145 216.349C308.145 216.347 308.147 216.349 308.145 216.347C308.147 216.349 308.145 216.347 308.145 216.349Z" fill="#9AC1F9"/>
<path d="M285.773 257.618H298.133V215.388H285.773V257.618Z" fill="#9AC1F9"/>
<path d="M98.2744 172.544H265.421V151.06H98.2744V172.544Z" fill="#BADAFB"/>
<path d="M157.839 184.153H265.421V178.646H157.839V184.153Z" fill="#BADAFB"/>
<path d="M151.198 242.194H98.2744V178.646H151.198V242.194Z" fill="#739AF0"/>
<path d="M265.421 195.761H207.482C206.094 193.615 203.941 192.371 201.485 192.08C201.031 192.026 200.608 192.001 200.213 192.001C196.88 192.001 195.57 193.831 193.539 195.761H157.839V190.255H265.421V195.761Z" fill="#BADAFB"/>
<path d="M265.421 230.585H157.839V225.079H177.043C179.068 226.571 181.31 227.174 183.599 227.174C186.341 227.174 189.152 226.31 191.754 225.079H265.421V230.585Z" fill="#BADAFB"/>
<path d="M157.839 242.194H265.421V236.687H157.839V242.194Z" fill="#BADAFB"/>
<path d="M22.7218 201.434L123.202 201.253C124.711 201.251 125.936 202.473 125.939 203.985L126.177 336.578C126.18 338.09 124.959 339.316 123.45 339.32L22.97 339.502C21.4611 339.503 20.2356 338.281 20.2329 336.769L19.9944 204.176C19.9917 202.664 21.2127 201.438 22.7218 201.434Z" fill="white"/>
<path d="M93.5356 199.476C93.5345 198.893 93.0618 198.421 92.4798 198.423L52.6267 198.495C52.0447 198.495 51.5736 198.968 51.5746 199.552L51.5822 203.701L93.5431 203.625L93.5356 199.476Z" fill="#13375B"/>
<path d="M72.5627 203.746C70.3366 203.749 68.5286 201.946 68.5247 199.717C68.5207 197.487 70.3221 195.676 72.5483 195.673C74.7744 195.669 76.5822 197.473 76.5864 199.703C76.5903 201.931 74.789 203.742 72.5627 203.746ZM72.5442 193.415C69.0729 193.421 66.2641 196.245 66.2702 199.721C66.2765 203.197 69.0955 206.01 72.5669 206.003C76.0382 205.998 78.847 203.175 78.8409 199.697C78.8346 196.222 76.0155 193.408 72.5442 193.415Z" fill="#13375B"/>
<path d="M92.8901 198.504C93.2687 198.664 93.5349 199.038 93.5356 199.476L93.5431 203.625L51.5822 203.7C51.5872 206.573 53.9177 208.899 56.7876 208.893L88.3564 208.838C91.2261 208.832 93.5482 206.498 93.5431 203.625L93.5356 199.476C93.5349 199.038 93.2687 198.664 92.8901 198.504Z" fill="#355389"/>
<path d="M52.6267 198.495C52.2629 198.495 51.9424 198.68 51.7535 198.961C51.9424 198.68 52.2629 198.495 52.6267 198.495Z" fill="#D4E1FF"/>
<path d="M51.6214 199.239C51.6419 199.172 51.6687 199.109 51.701 199.048C51.6687 199.109 51.6419 199.172 51.6214 199.239Z" fill="#D4E1FF"/>
<path d="M96.6 242.813L108.99 242.791L108.967 230.384L96.5777 230.405L96.6 242.813ZM109.542 243.342L96.0494 243.367L96.0251 229.855L109.518 229.829L109.542 243.342Z" fill="#233862"/>
<path d="M96.6404 265.297L109.03 265.275L109.008 252.866L96.6181 252.889L96.6404 265.297ZM109.583 265.826L96.09 265.849L96.0656 252.338L109.558 252.313L109.583 265.826Z" fill="#233862"/>
<path d="M96.6809 287.781L109.071 287.759L109.048 275.35L96.6587 275.373L96.6809 287.781ZM109.623 288.31L96.1304 288.333L96.1061 274.822L109.599 274.797L109.623 288.31Z" fill="#233862"/>
<path d="M96.7214 310.264L109.111 310.241L109.089 297.833L96.6991 297.857L96.7214 310.264ZM109.664 310.793L96.1708 310.817L96.1465 297.304L109.639 297.281L109.664 310.793Z" fill="#233862"/>
<path d="M32.6313 232.189L90.3767 232.085L90.3731 230.141L32.6277 230.245L32.6313 232.189Z" fill="#D4E1FF"/>
<path d="M32.6412 237.697L90.3866 237.593L90.3832 235.649L32.6376 235.751L32.6412 237.697Z" fill="#D4E1FF"/>
<path d="M32.6509 243.205L90.3964 243.101L90.393 241.155L32.6475 241.26L32.6509 243.205Z" fill="#D4E1FF"/>
<path d="M32.673 255.442L90.4184 255.337L90.415 253.391L32.6694 253.496L32.673 255.442Z" fill="#D4E1FF"/>
<path d="M32.683 260.948L90.4285 260.845L90.4249 258.899L32.6796 259.004L32.683 260.948Z" fill="#D4E1FF"/>
<path d="M32.6928 266.456L90.4383 266.351L90.4347 264.407L32.6894 264.512L32.6928 266.456Z" fill="#D4E1FF"/>
<path d="M32.7128 277.472L90.4581 277.367L90.4547 275.422L32.7092 275.526L32.7128 277.472Z" fill="#D4E1FF"/>
<path d="M32.7226 282.978L90.468 282.875L90.4646 280.93L32.7191 281.034L32.7226 282.978Z" fill="#D4E1FF"/>
<path d="M32.7326 288.486L90.4779 288.382L90.4745 286.438L32.729 286.542L32.7326 288.486Z" fill="#D4E1FF"/>
<path d="M32.7523 299.502L90.4978 299.398L90.4942 297.452L32.7487 297.556L32.7523 299.502Z" fill="#D4E1FF"/>
<path d="M32.7622 305.01L90.5075 304.906L90.5041 302.96L32.7588 303.064L32.7622 305.01Z" fill="#D4E1FF"/>
<path d="M32.7721 310.516L90.5176 310.412L90.514 308.468L32.7685 308.572L32.7721 310.516Z" fill="#D4E1FF"/>
<path d="M32.7978 324.756L99.4156 324.635L99.4122 322.691L32.7944 322.812L32.7978 324.756Z" fill="#D4E1FF"/>
<path d="M32.8062 329.468L112.561 329.324L112.558 327.38L32.8026 327.524L32.8062 329.468Z" fill="#D4E1FF"/>
<path d="M102.729 241.133L98.5391 233.933L100.038 233.059L102.471 237.238L106.441 227.698L108.043 228.368L102.729 241.133Z" fill="#50BFA5"/>
<path d="M102.77 263.911L98.5801 256.712L100.079 255.838L102.512 260.015L106.482 250.477L108.084 251.145L102.77 263.911Z" fill="#50BFA5"/>
<path d="M102.85 308.446L98.6599 301.246L100.159 300.372L102.592 304.549L106.562 295.011L108.164 295.679L102.85 308.446Z" fill="#50BFA5"/>
<path d="M107.519 278.158L106.31 276.935L102.863 280.357L99.4025 276.948L98.1986 278.174L101.643 281.567L98.2106 284.974L99.419 286.195L102.867 282.773L106.327 286.182L107.531 284.956L104.086 281.563L107.519 278.158Z" fill="#FFA961"/>
<path d="M47.2108 334.843L51.9469 334.834L47.2108 334.843Z" fill="#DABD7E"/>
<path d="M47.2108 334.843C49.4467 333.4 51.4059 331.564 52.9897 329.432L56.4785 329.425C55.4861 331.024 54.3051 332.519 52.9462 333.884C52.6207 334.211 52.287 334.528 51.9469 334.834L47.2108 334.843Z" fill="#E1ECFD"/>
<path d="M54.2827 327.485C54.8058 326.599 55.2684 325.674 55.6653 324.714L58.7538 324.709C58.4159 325.656 58.0202 326.581 57.5691 327.479L54.2827 327.485ZM56.365 322.769C56.9961 320.713 57.334 318.53 57.3299 316.269C57.3263 314.264 57.054 312.32 56.5473 310.473L59.5141 310.467C59.962 312.345 60.194 314.285 60.1976 316.263C60.2016 318.488 59.9161 320.67 59.3588 322.763L56.365 322.769ZM55.9146 308.531C55.4446 307.287 54.8647 306.095 54.1877 304.97L57.4821 304.965C58.069 306.111 58.5645 307.301 58.9651 308.525L55.9146 308.531ZM52.8738 303.028C51.8852 301.721 50.7534 300.528 49.5044 299.471L53.647 299.464C54.6694 300.576 55.5801 301.766 56.3735 303.021L52.8738 303.028ZM46.8277 297.531C43.48 295.468 39.5417 294.276 35.3322 294.276C35.3189 294.276 35.3053 294.276 35.292 294.276C31.8437 294.284 28.5803 295.088 25.675 296.516L25.6707 294.093L25.6693 293.349C28.6732 292.08 31.9285 291.411 35.2868 291.405C35.3022 291.405 35.3171 291.405 35.3326 291.405C41.3959 291.405 47.13 293.565 51.6571 297.522L46.8277 297.531Z" fill="#E1ECFD"/>
<path d="M49.5044 299.471C48.6633 298.761 47.7694 298.113 46.8278 297.531L51.6572 297.522C52.0763 297.889 52.4852 298.271 52.8828 298.667C53.1442 298.928 53.3988 299.194 53.6471 299.464L49.5044 299.471Z" fill="#89B3F7"/>
<path d="M54.1877 304.97C53.7834 304.299 53.3451 303.651 52.8738 303.028L56.3735 303.021C56.773 303.653 57.143 304.303 57.4821 304.965L54.1877 304.97Z" fill="#89B3F7"/>
<path d="M56.5474 310.473C56.3658 309.812 56.1546 309.164 55.9147 308.531L58.9652 308.525C59.1742 309.164 59.3574 309.812 59.5141 310.468L56.5474 310.473Z" fill="#89B3F7"/>
<path d="M55.6654 324.715C55.9278 324.081 56.1618 323.431 56.3651 322.769L59.3589 322.764C59.1838 323.421 58.982 324.07 58.7539 324.709L55.6654 324.715Z" fill="#89B3F7"/>
<path d="M52.9897 329.432C53.4538 328.808 53.8857 328.158 54.2828 327.485L57.5692 327.479C57.2357 328.144 56.8719 328.793 56.4785 329.425L52.9897 329.432Z" fill="#89B3F7"/>
<path d="M25.7383 331.7L25.7353 329.976L25.7383 331.7ZM25.686 302.674L25.683 300.949L25.686 302.674Z" fill="#DABD7E"/>
<path d="M35.3309 334.458C31.8114 334.458 28.5227 333.448 25.7383 331.701L25.7353 329.976C28.4519 331.895 31.7627 333.024 35.3309 333.024C35.3411 333.024 35.3514 333.024 35.3618 333.024C39.2382 333.016 42.8075 331.679 45.6398 329.445L47.8298 329.442C44.5835 332.541 40.193 334.451 35.3643 334.458C35.353 334.458 35.3422 334.458 35.3309 334.458ZM47.7209 327.498C48.4867 326.648 49.1669 325.719 49.7474 324.726L51.3883 324.722C50.8744 325.703 50.2735 326.63 49.5963 327.494L47.7209 327.498ZM50.7209 322.78C51.5628 320.778 52.0267 318.582 52.0224 316.278C52.0188 314.24 51.6496 312.289 50.9776 310.484L52.4987 310.482C53.1161 312.3 53.4528 314.249 53.4564 316.274C53.4605 318.564 53.0392 320.757 52.2674 322.776L50.7209 322.78ZM50.1087 308.54C49.427 307.246 48.5804 306.05 47.5968 304.983L49.483 304.979C50.3557 306.07 51.1048 307.262 51.7104 308.538L50.1087 308.54ZM45.4748 303.041C42.6612 300.879 39.1435 299.592 35.3319 299.592C35.3219 299.592 35.3116 299.592 35.3016 299.592C31.7217 299.599 28.4035 300.74 25.686 302.674L25.683 300.949C27.7872 299.619 30.1826 298.708 32.7502 298.341L32.7523 299.502L42.1369 299.484C44.2023 300.326 46.0795 301.538 47.6849 303.037L45.4748 303.041Z" fill="#E1ECFD"/>
<path d="M32.7523 299.502L32.7501 298.341C33.583 298.22 34.4337 298.159 35.299 298.157C35.3105 298.157 35.3209 298.157 35.3324 298.157C37.7372 298.157 40.0348 298.629 42.1368 299.484L32.7523 299.502Z" fill="#89B3F7"/>
<path d="M47.5968 304.983C46.9467 304.277 46.2362 303.628 45.4748 303.041L47.6849 303.037C48.3296 303.64 48.9312 304.29 49.483 304.979L47.5968 304.983Z" fill="#89B3F7"/>
<path d="M50.9776 310.484C50.7284 309.814 50.438 309.166 50.1087 308.54L51.7104 308.538C52.0089 309.166 52.2728 309.816 52.4987 310.482L50.9776 310.484Z" fill="#89B3F7"/>
<path d="M49.7474 324.725C50.1126 324.101 50.4379 323.451 50.7208 322.78L52.2673 322.776C52.0117 323.444 51.7179 324.094 51.3882 324.722L49.7474 324.725Z" fill="#89B3F7"/>
<path d="M45.6398 329.445C46.3871 328.856 47.084 328.203 47.7208 327.497L49.5962 327.494C49.0545 328.185 48.4642 328.837 47.8297 329.441L45.6398 329.445Z" fill="#89B3F7"/>
<path d="M52.81 223.873V217.399H50.2335V216.832H56.1987V217.399H53.6219V223.873H52.81Z" fill="#233862"/>
<path d="M62.7816 223.306V223.873H57.6105V216.832H62.599V217.399H58.4167V219.865H61.4445V220.432H58.4167V223.306H62.7816Z" fill="#233862"/>
<path d="M63.6053 222.188L64.3053 221.954C64.5405 222.457 64.8416 222.827 65.2084 223.067C65.5751 223.306 66.0252 223.425 66.5585 223.425C67.1076 223.425 67.5497 223.301 67.8851 223.049C68.2203 222.799 68.3882 222.469 68.3882 222.059C68.3882 221.733 68.2782 221.463 68.0588 221.252C67.8389 221.042 67.4665 220.849 66.941 220.675C66.6546 220.583 66.2752 220.471 65.8025 220.342C65.3299 220.21 65.0269 220.113 64.8935 220.05C64.4738 219.854 64.1758 219.645 63.9995 219.422C63.823 219.2 63.7346 218.925 63.7346 218.599C63.7346 218.014 63.9562 217.555 64.3994 217.22C64.8425 216.886 65.4525 216.718 66.229 216.718C66.9194 216.718 67.489 216.855 67.9382 217.13C68.3871 217.404 68.7292 217.825 68.9646 218.394L68.2822 218.57C68.0663 218.131 67.789 217.807 67.4498 217.598C67.1105 217.39 66.6918 217.285 66.1938 217.285C65.7114 217.285 65.3202 217.397 65.0201 217.622C64.7201 217.849 64.57 218.142 64.57 218.504C64.57 218.776 64.6671 219.006 64.8612 219.193C65.0555 219.38 65.3564 219.533 65.7644 219.65C65.9211 219.697 66.1487 219.764 66.4467 219.845C67.3017 220.081 67.8528 220.266 68.0999 220.403C68.4959 220.612 68.7831 220.842 68.9618 221.09C69.1401 221.341 69.2294 221.634 69.2294 221.974C69.2294 222.59 68.9891 223.079 68.5086 223.445C68.0282 223.81 67.3781 223.992 66.5585 223.992C65.821 223.992 65.2142 223.846 64.7377 223.555C64.2612 223.263 63.8836 222.808 63.6053 222.188Z" fill="#233862"/>
<path d="M72.565 223.873V217.399H69.9883V216.832H75.9535V217.399H73.3769V223.873H72.565Z" fill="#233862"/>
<path d="M77.4949 223.873V216.832H78.3008V223.873H77.4949Z" fill="#233862"/>
<path d="M81.5424 217.341V223.873H80.76V216.832H82.0718L86.2428 222.774V216.832H87.0252V223.873H86.1664L81.5424 217.341Z" fill="#233862"/>
<path d="M94.4084 223.083C94.1181 223.394 93.775 223.627 93.3789 223.78C92.9827 223.934 92.5219 224.012 91.9963 224.012C90.9177 224.012 90.0963 223.699 89.5314 223.076C88.9666 222.451 88.6843 221.548 88.6843 220.365C88.6843 219.193 88.9726 218.29 89.549 217.654C90.1256 217.017 90.9414 216.698 91.9963 216.698C92.7768 216.698 93.4005 216.868 93.8671 217.204C94.3338 217.541 94.6791 218.07 94.9025 218.794L94.1437 218.921C93.9555 218.354 93.6857 217.935 93.3348 217.665C92.9838 217.395 92.5336 217.26 91.9846 217.26C91.2003 217.26 90.5942 217.523 90.1668 218.048C89.7393 218.574 89.5256 219.319 89.5256 220.284C89.5256 221.324 89.7422 222.111 90.1756 222.64C90.6089 223.169 91.2531 223.436 92.1081 223.436C92.7512 223.436 93.2691 223.285 93.6612 222.986C94.0534 222.685 94.2495 222.289 94.2495 221.798V221.045H92.0846V220.516H95.1204V223.873H94.4084V223.083Z" fill="#233862"/>
<path d="M196.555 49.5018L194.724 56.655L200.33 53.5014L217.074 47.3184L204.733 46.9746C204.733 46.9746 198.335 47.7432 197.963 48.0078C197.589 48.2724 196.555 49.5018 196.555 49.5018Z" fill="#50BFA5"/>
<path d="M191.673 44.4636L217.074 47.3185L196.555 49.5018L191.673 44.4636Z" fill="#96D9C9"/>
<path d="M203.84 57.7909L197.828 51.6457L217.074 47.3185L203.84 57.7909Z" fill="#96D9C9"/>
<path d="M181.93 55.1718C182.902 54.2718 184.004 53.523 185.205 52.9416L185.467 53.4852C184.32 54.0396 183.267 54.756 182.338 55.6146L181.93 55.1718ZM174.399 56.5398C175.085 56.4174 176.335 56.2158 176.974 56.2626C177.47 56.2968 177.923 56.3472 178.358 56.412L178.269 57.0078C177.85 56.9448 177.411 56.898 176.931 56.8638C176.512 56.8332 175.628 56.9322 174.505 57.1338L174.399 56.5398ZM181.878 58.2588L181.806 58.2138L182.124 57.7008L182.203 57.7512C183.364 58.4964 184.263 59.6124 184.669 60.8112L184.099 61.0038C183.736 59.9328 182.926 58.932 181.878 58.2588ZM178.642 60.9624C178.709 60.3882 178.853 59.805 179.07 59.2308C179.187 58.9212 179.325 58.6098 179.485 58.3038L180.019 58.581C179.872 58.8672 179.741 59.157 179.633 59.4432C179.433 59.9724 179.302 60.507 179.241 61.0326C179.198 61.4052 179.192 61.7868 179.225 62.1648L178.624 62.217C178.588 61.7976 178.594 61.3764 178.642 60.9624ZM167.189 59.5836C168.259 58.8726 169.402 58.2138 170.59 57.6234L170.856 58.1634C169.693 58.743 168.572 59.3892 167.524 60.0858L167.189 59.5836ZM180.472 65.9178C180.44 65.8908 180.407 65.8656 180.377 65.8386L180.767 65.3796C180.796 65.403 180.823 65.4264 180.846 65.4462C180.846 65.4462 180.862 65.457 180.903 65.4714C181.218 65.5902 182.075 65.6928 182.589 65.4642C183.021 65.2716 183.389 64.9404 183.686 64.4814L184.193 64.809C183.837 65.3598 183.366 65.7774 182.834 66.015C182.12 66.3318 181.087 66.186 180.691 66.0366C180.598 66.0006 180.526 65.9628 180.472 65.9178ZM161.378 64.8414C162.162 63.846 163.072 62.8848 164.08 61.9812L164.481 62.4312C163.499 63.3096 162.613 64.2474 161.849 65.2158L161.378 64.8414ZM158.064 71.3934C158.21 70.8246 158.389 70.254 158.6 69.696C158.792 69.183 159.015 68.67 159.263 68.1714L159.802 68.4378C159.563 68.9202 159.349 69.4152 159.162 69.9084C158.961 70.4448 158.787 70.9956 158.646 71.5428C158.605 71.7048 158.567 71.8668 158.529 72.0288L157.944 71.8974C157.981 71.7264 158.021 71.5572 158.064 71.3934Z" fill="#D4E1FF"/>
<path d="M189.078 52.362C189.727 52.2648 190.376 52.2198 191.008 52.2324L191.019 51.6294C190.354 51.6168 189.671 51.6636 188.988 51.7662L189.078 52.362Z" fill="#D4E1FF"/>
<path d="M144.297 61.3296C144.659 61.3458 145.652 61.6788 147.104 64.4256C148.958 67.9356 151.669 78.5376 151.669 78.5376L143.579 81.5562L142.539 79.3422L140.827 62.3052C140.827 62.3052 144.196 61.326 144.297 61.3296Z" fill="#A34B3D"/>
<path d="M133.602 59.8014C135.916 59.805 141.64 60.4818 144.296 61.3314C144.296 61.3314 146.248 78.1308 142.539 90.8964C141.709 93.753 143.226 102.74 143.226 102.74L119.254 102.424C119.254 102.424 122.094 80.6958 121.024 77.1858C119.954 73.6758 119.928 61.4448 119.928 61.4448C119.928 61.4448 120.092 61.4178 125.314 60.5142C127.75 60.093 131.132 59.7996 133.602 59.8014Z" fill="#B75742"/>
<path d="M130.809 133.922C130.809 133.922 131.339 140.051 132.314 141.748C133.289 143.446 132.263 146.333 132.211 146.729C132.16 147.125 130.159 147.69 126.977 147.35C123.795 147.011 123.846 146.275 124.103 145.087C124.359 143.899 126.053 142.371 126.156 141.239C126.258 140.108 125.181 136.033 125.181 136.033L130.809 133.922Z" fill="#FFB27D"/>
<path d="M140.521 97.6806C140.521 97.6806 157.07 96.7608 160.765 99.0018C164.459 101.243 158.139 112.243 158.139 112.243C158.139 112.243 146.624 111.712 124.07 113.015C118.729 113.324 118.269 99.0684 119.268 97.8894C120.266 96.7104 140.521 97.6806 140.521 97.6806Z" fill="#E0973F"/>
<path d="M126.58 147.827C123.303 147.476 123.709 145.865 123.973 144.641C124.138 143.876 125.078 142.972 125.639 142.117C125.931 142.351 126.408 142.763 127.831 143.185C129.308 143.622 131.334 142.756 132.624 142.214C133.084 143.93 133.105 146.115 133.062 146.448C133.01 146.855 129.856 148.176 126.58 147.827Z" fill="#DD513A"/>
<path d="M128.388 109.537C129.05 114.547 132.323 139.489 132.323 139.489L124.728 140.432C124.728 140.432 115.387 107.878 115.866 102.899C116.345 97.9181 119.841 97.5005 119.841 97.5005C119.841 97.5005 126.638 96.2747 128.388 109.537Z" fill="#F7CC7F"/>
<path d="M119.667 63.3114C121.909 62.469 123.005 82.6938 123.307 91.0188C127.277 91.4004 134.195 91.0206 135.918 90.8928C136.728 90.8316 138.596 90.1458 139.402 90.0396C140.227 89.9316 140.976 89.8758 141.382 89.946C141.531 89.9712 145.668 91.6668 146.022 92.0376C146.461 92.4984 147.647 93.6612 147.447 94.1634C147.247 94.6656 145.165 92.763 145.165 92.763L144.148 92.1924C145.414 93.4308 147.83 95.0634 147.482 95.6574C147.143 96.237 144.964 94.581 143.41 93.4524C144.742 94.6566 146.397 96.813 146.016 97.1496C145.673 97.452 143.791 94.9554 141.779 94.2354C141.033 93.969 140.29 94.707 139.704 94.797C139.273 94.8618 138.607 95.0004 138.184 94.8816L136.006 94.2624C135.264 94.329 135.245 94.77 134.496 94.9284C133.626 95.1138 132.199 95.31 131.091 95.58C124.711 97.1424 122.583 97.866 120.63 97.866C114.713 97.8624 114.37 65.3022 119.667 63.3114Z" fill="#FFB27D"/>
<path d="M115.414 82.2996C114.994 73.7712 115.055 63.2628 119.828 61.4682C121.712 60.7608 125.032 65.016 124.434 82.4724C121.887 82.683 118.146 82.8522 115.414 82.2996Z" fill="#A34B3D"/>
<path d="M153.813 139.865C153.813 139.865 152.717 141.806 153.58 143.431C154.442 145.058 158.97 147.451 159.443 148.333C159.915 149.215 159.73 149.839 159.73 149.839L146.282 146.538L147.313 142.479L148.57 139.673L153.813 139.865Z" fill="#FFB27D"/>
<path d="M154.273 144.301C154.273 144.301 150.493 144.956 148.994 143.759C147.494 142.562 147.595 142.342 147.042 142.547C146.686 142.679 146.145 144.295 145.804 145.435C145.623 146.039 145.987 146.675 146.6 146.826L160.602 150.291C161.666 150.496 162.37 149.832 161.653 148.977C161.163 148.39 160.548 147.937 160.208 147.631C159.166 146.689 154.273 144.301 154.273 144.301Z" fill="#DD513A"/>
<path d="M152.496 101.61C153.565 99.3546 155.997 96.4206 160.278 98.1882C164.36 99.8748 165.457 104.018 164.168 108.261C162.881 112.504 154.401 137.448 154.104 140.879L147.334 140.924C147.334 140.924 148.565 121.172 148.867 116.397C149.156 111.803 150.644 105.511 152.496 101.61Z" fill="#F7CC7F"/>
<path d="M163.487 78.6348H140.853C140.254 78.6348 139.715 78.9984 139.488 79.5546L132.519 96.6348H120.041C119.692 96.6348 119.409 96.9192 119.409 97.2702C119.409 97.6194 119.692 97.9038 120.041 97.9038H155.555C156.531 97.9038 157.415 97.3278 157.816 96.4332L164.833 80.7246C165.271 79.7436 164.558 78.6348 163.487 78.6348Z" fill="#233862"/>
<path d="M138.981 39.2832C138.299 39.0546 137.627 38.7936 136.979 38.4804C136.246 38.1276 135.296 37.7118 134.696 37.62C133.432 37.4238 131.262 37.5552 130.064 38.8566C128.571 40.4784 125.918 39.15 126.453 47.6442C127.058 57.258 132.396 56.2032 132.526 56.0412C132.655 55.8774 137.287 49.8888 137.287 49.8888C137.287 49.8888 138.906 53.4366 138.906 53.307C138.906 53.181 147.175 42.048 138.981 39.2832Z" fill="#163560"/>
<path d="M134.928 56.7504L135.389 60.1866C135.389 60.1866 136.421 65.1348 135.093 66.0906C133.765 67.0446 129.445 60.0444 129.445 60.0444L129.902 51.3396L134.928 56.7504Z" fill="#FFB27D"/>
<path d="M129.754 54.1603C130.851 57.1303 133.464 58.9554 135.319 59.6628L134.928 56.7505L129.902 51.3396L129.754 54.1603Z" fill="#FFA961"/>
<path d="M134.655 41.8662C137.47 41.4108 139.994 43.6788 139.924 46.4994C139.893 47.7252 139.793 49.257 139.538 50.9058C138.926 54.8712 136.224 58.3632 134.438 58.0518C132.651 57.7404 128.156 54.3186 128.948 48.6756C129.436 45.1908 131.702 42.3432 134.655 41.8662Z" fill="#FFB27D"/>
<path d="M130.187 49.3488C130.037 50.2218 129.339 50.8284 128.629 50.7042C127.92 50.58 127.467 49.7718 127.617 48.9006C127.768 48.0276 128.466 47.421 129.175 47.5452C129.885 47.6694 130.338 48.4776 130.187 49.3488Z" fill="#FFB27D"/>
<path d="M129.175 47.5452C129.175 47.5452 131.335 48.0834 132.137 46.692C132.939 45.3006 135.805 42.2982 139.449 43.5438C143.092 44.7876 136.242 40.5162 135.951 40.5162C135.659 40.5162 132.161 40.4928 132.161 40.4928C132.161 40.4928 129.465 42.7122 129.368 42.957C129.271 43.2018 128.493 45.8622 128.493 45.8622L129.175 47.5452Z" fill="#163560"/>
<path d="M178.851 324.355C178.851 324.355 178.13 329.38 176.893 331.002C176.478 331.546 175.72 332.235 175.222 333.218C174.445 334.75 174.875 337.028 175.447 338.285C175.74 338.929 175.425 338.927 176.094 339.134C178.074 339.75 180.179 338.715 181.022 336.805C181.493 335.738 181.906 334.316 181.989 332.523C182.201 327.96 183.609 325.64 183.609 325.64L178.851 324.355Z" fill="#FFB27D"/>
<path d="M200.5 326.653C200.5 326.653 200.944 332.32 200.585 334.161C200.391 335.147 199.316 337.178 199.81 338.105C200.303 339.034 200.867 339.266 200.867 339.266L213.647 339.473C214.342 339.484 213.882 339.034 213.321 338.618C212.403 337.937 211.66 337.487 208.727 336.056C208.535 335.965 207.837 335.518 207.588 335.363C206.95 334.971 206.31 334.354 205.758 333.736C204.841 332.708 204.76 327.717 204.76 327.717L200.5 326.653Z" fill="#FFB27D"/>
<path d="M210.49 251.332C210.49 251.332 212.099 260.532 211.042 266.564C209.985 272.596 204.915 328.504 204.915 328.504L199.278 328.824C199.278 328.824 198.096 305.469 198.308 302.222C198.52 298.975 200.191 293.539 200.191 293.539L199.631 274.684L206.743 249.912L210.49 251.332Z" fill="#EF7E29"/>
<path d="M193.926 249.397C193.926 249.397 189.486 256.124 188.431 261.691C187.374 267.26 189.206 284.369 187.173 291.667C186.073 295.616 181.903 301.716 181.268 306.819C180.634 311.922 178.148 325.291 178.148 325.291L183.781 326.416L196.873 293.029L207.144 262.85L209.775 247.309L193.926 249.397Z" fill="#FFA961"/>
<path d="M181.407 335.801C178.335 336.364 176.293 334.555 175.229 333.202C174.449 334.735 174.068 337.025 174.643 338.285C175.148 339.395 176.626 339.363 177.789 339.406C179.018 339.453 179.971 338.764 180.58 337.685C180.866 337.181 181.16 336.555 181.407 335.801Z" fill="#F7CC7F"/>
<path d="M207.586 335.362C204.205 336.235 201.707 335.642 200.308 335.074C199.949 336.103 199.471 337.394 199.724 338.137C200.035 339.05 200.477 339.255 200.867 339.266C203.953 339.347 212.175 339.458 214.529 339.489C214.858 339.494 215.04 339.107 214.828 338.852C214.243 338.15 207.837 335.516 207.586 335.362Z" fill="#F7CC7F"/>
<path d="M230.718 235.44C230.954 234.938 228.472 234.256 228.391 233.716C228.312 233.176 231.64 233.48 231.806 233.03C232.113 232.202 228.182 232.472 228.299 232.081C228.416 231.691 232.458 231.212 232.102 230.485C231.746 229.757 227.963 231.419 227.904 230.944C227.842 230.468 231.559 229.714 231.601 228.692C231.622 228.145 225.411 230.787 224.76 230.422C224.109 230.054 225.788 227.648 225.285 227.212C224.781 226.778 222.603 231.811 222.209 231.959C221.818 232.105 213.294 234.686 210.397 235.112C210.152 234.13 207.972 228.722 207.764 227.795C206.062 228.76 203.894 227.599 202.152 228.46C203.029 231.556 204.998 241.753 205.783 242.212C208.179 243.608 220.779 236.943 222.862 235.764C224.947 234.583 226.011 235.147 227.37 234.846C228.729 234.545 230.483 235.94 230.718 235.44Z" fill="#F38B80"/>
<path d="M208.298 205.402C208.93 202.516 209.552 199.613 207.881 196.443C206.529 193.878 204.191 192.402 201.486 192.08C193.82 191.169 195.459 198.337 184.745 199.886C181.416 200.369 178.322 200.833 175.542 202.491C170.524 205.484 168.629 210.287 171.958 218.111C180.109 237.271 199.611 220.622 202.586 217.233C205.537 213.871 207.89 207.259 208.298 205.402Z" fill="#163560"/>
<path d="M196.232 214.51C196.232 214.51 192.362 214.949 190.047 217.471C187.732 219.992 193.789 240.266 194.21 243.477C194.63 246.686 190.183 255.571 190.183 255.571C190.183 255.571 205.3 258.579 209.229 255.982C209.229 255.982 209.574 231.17 209.151 228.877C208.731 226.586 205.222 217.26 204.381 216.344C203.54 215.426 196.232 214.51 196.232 214.51Z" fill="#F7CC7F"/>
<path d="M198.18 206.694C198.18 206.694 198.15 206.867 198.096 207.158C197.835 208.566 196.83 213.23 196.151 214.513C195.331 216.063 198.96 221.006 202.452 220.401C203.491 220.223 201.574 215.86 201.665 215.399C201.841 214.513 202.08 213.307 202.327 212.071C202.465 211.372 202.603 210.665 202.736 209.999C203.109 208.109 203.414 206.563 203.414 206.563L198.18 206.694Z" fill="#FFB27D"/>
<path d="M202.328 212.058C202.355 211.918 202.384 211.777 202.411 211.637C202.384 211.777 202.355 211.918 202.328 212.058ZM202.51 211.145C202.585 210.757 202.663 210.371 202.736 209.999C203.109 208.109 203.414 206.563 203.414 206.563C203.414 206.563 203.109 208.109 202.736 209.999C202.663 210.371 202.585 210.757 202.51 211.145ZM198.081 207.241C198.085 207.212 198.09 207.185 198.096 207.158C198.144 206.897 198.173 206.734 198.18 206.699C198.173 206.734 198.144 206.897 198.096 207.158C198.09 207.185 198.087 207.212 198.081 207.241Z" fill="#815147"/>
<path d="M202.328 212.058C201.52 211.939 200.677 211.547 199.83 210.807C198.906 209.999 198.302 209.029 197.937 207.994C197.993 207.702 198.042 207.446 198.081 207.241C198.087 207.212 198.09 207.185 198.096 207.158C198.144 206.897 198.173 206.734 198.18 206.699C198.18 206.696 198.18 206.694 198.18 206.694L203.414 206.563C203.414 206.563 203.109 208.109 202.736 209.999C202.663 210.371 202.585 210.757 202.51 211.145C202.478 211.307 202.445 211.471 202.411 211.637C202.384 211.777 202.355 211.918 202.328 212.058Z" fill="#F58C74"/>
<path d="M201.329 194.238C201.329 194.238 199.194 194.533 197.648 196.533C196.102 198.531 194.434 204.712 198.275 208.073C202.116 211.433 205.912 207.63 206.475 203.596C207.038 199.562 206.924 194.092 201.329 194.238Z" fill="#FFB27D"/>
<path d="M207.595 202.601C207.352 203.573 206.716 204.23 206.175 204.068C205.632 203.906 205.388 202.986 205.63 202.014C205.873 201.04 206.509 200.385 207.052 200.547C207.593 200.709 207.837 201.629 207.595 202.601Z" fill="#FFB27D"/>
<path d="M203.698 194.254C203.698 194.254 198.683 200.021 196.325 200.293C193.969 200.565 193.658 203.688 193.658 203.688C193.658 203.688 194.501 196.492 196.836 195.104C199.169 193.716 203.698 194.254 203.698 194.254Z" fill="#163560"/>
<path d="M197.096 201.694C197.289 202.738 196.902 203.695 196.235 203.832C195.568 203.969 194.871 203.234 194.681 202.19C194.488 201.146 194.873 200.189 195.542 200.052C196.208 199.915 196.906 200.65 197.096 201.694Z" fill="#FFB27D"/>
<path d="M197.024 230.962L213.233 233.336C213.72 233.408 214.057 233.861 213.986 234.349L210.823 256.003C210.751 256.491 210.298 256.829 209.811 256.757L193.604 254.383C193.117 254.311 192.779 253.858 192.851 253.37L196.014 231.716C196.084 231.228 196.537 230.89 197.024 230.962Z" fill="#233862"/>
<path d="M209.114 232.015C209.128 231.916 209.06 231.824 208.961 231.809L202.201 230.819C202.102 230.805 202.01 230.873 201.996 230.972L201.894 231.676L209.011 232.718L209.114 232.015Z" fill="#13375B"/>
<path d="M205.451 232.213C205.073 232.157 204.811 231.804 204.866 231.426C204.922 231.048 205.273 230.787 205.65 230.843C206.028 230.897 206.29 231.25 206.234 231.628C206.179 232.006 205.828 232.267 205.451 232.213ZM205.706 230.459C205.118 230.373 204.57 230.782 204.484 231.37C204.397 231.961 204.805 232.508 205.395 232.594C205.983 232.68 206.531 232.272 206.617 231.683C206.702 231.093 206.295 230.546 205.706 230.459Z" fill="#13375B"/>
<path d="M209.029 231.835C209.088 231.871 209.124 231.941 209.114 232.015L209.011 232.718L201.893 231.676C201.822 232.164 202.159 232.616 202.645 232.688L208.001 233.473C208.488 233.545 208.939 233.206 209.011 232.718L209.114 232.015C209.124 231.941 209.088 231.871 209.029 231.835Z" fill="#355389"/>
<path d="M185.654 236.498L191.526 237.1C191.526 237.1 191.431 242.091 191.531 242.665C191.531 242.665 201.573 245.453 205.77 246.209C205.77 246.209 207.683 245.124 208.456 244.78C209.229 244.435 211.306 244.058 211.767 243.999C212.227 243.938 212.068 244.442 211.675 244.618C211.279 244.795 210.259 245.277 209.969 245.867C209.969 245.867 210.798 245.957 211.236 245.761C211.675 245.567 212.279 245.151 212.29 244.937C212.299 244.723 212.397 244.204 212.543 244.231C212.579 244.238 212.627 244.409 212.678 244.588C212.725 244.755 212.773 244.93 212.814 245.101C212.888 245.407 212.973 245.853 213.007 246.055C213.08 246.512 212.802 247.777 212.762 248.225C212.69 249.046 212.457 249.41 212.024 249.619C211.326 249.862 210.589 250.016 209.5 250.13C207.503 250.337 205.666 249.761 204.865 249.671C204.065 249.581 191.276 248.31 191.276 248.31C191.276 248.31 186.193 247.577 185.855 246.701C185.519 245.826 185.654 236.498 185.654 236.498Z" fill="#FFB27D"/>
<path d="M190.755 216.738C190.755 216.738 188.902 217.618 187.273 221.42C185.724 225.032 185.269 243.061 185.269 243.061L191.413 242.035L194.535 233.629C196.76 228.598 196.185 222.741 192.942 218.299C192.078 217.112 191.282 216.398 190.755 216.738Z" fill="#F7CC7F"/>
<path d="M308.664 156.242H287.622V130.131H313.695V153.022C311.959 153.963 310.278 155.036 308.664 156.242Z" fill="#AFD0FB"/>
<path d="M318.309 133.679H369.174V130.131H318.309V133.679Z" fill="#AFD0FB"/>
<path d="M318.309 141.199H352.636V137.651H318.309V141.199Z" fill="#AFD0FB"/>
<path d="M363.999 148.721H341.113C338.593 148.255 336.04 148.023 333.49 148.023C330.938 148.023 328.389 148.255 325.874 148.721H318.309V145.174H363.999V148.721Z" fill="#AFD0FB"/>
<path d="M386.679 216.814C385.613 215.946 377.37 219.569 377.474 220.829C377.578 222.089 371.722 234.313 371.722 234.313L361.603 226.233L361.598 226.235C361.51 225.943 360.55 222.8 360.503 222.239C360.455 221.648 358.743 220.617 357.951 220.768C357.156 220.919 358.628 221.918 358.725 222.1C358.99 222.599 357.97 222.786 357.97 222.786C357.97 222.786 355.08 221.859 355.019 220.914C354.956 219.969 352.981 222.566 353.213 222.928C353.439 223.281 358.163 227.092 358.842 227.918C358.842 227.918 371.933 242.903 372.864 243.295C373.682 243.639 376.597 238.475 379.352 235.046C382.108 231.619 390.009 219.526 386.679 216.814Z" fill="#FFB27D"/>
<path d="M413.089 327.002C413.089 327.002 414.889 328.761 414.93 329.405C414.969 330.052 415.088 336.962 414.355 337.606C413.62 338.251 411.463 338.708 412.157 339.435C412.68 339.982 416.713 339.865 419.386 339.718C420.166 339.674 421.144 333.443 421.453 332.527C421.9 331.196 422.991 328.199 422.583 327.272C422.386 326.821 421.435 325.892 420.094 325.024C418.685 324.113 417.337 322.083 417.337 322.083L413.089 327.002Z" fill="#F48C7F"/>
<path d="M394.456 331.096L396.068 335.662C396.189 336.382 396.659 338.166 396.659 338.821C396.659 341.285 385.564 336.73 388.05 335.637C388.275 335.54 388.981 334.75 389.055 333.911C389.17 332.618 388.12 330.998 388.12 330.998L394.456 331.096Z" fill="#FFB27D"/>
<path d="M377.05 246.298C377.05 246.298 376.241 254.461 376.241 254.583C376.241 267.79 373.628 293.584 374.124 296.068C375.337 302.123 388.39 333.014 388.39 333.014L395.444 332.17L387.872 294.84L389.633 280.296L394.422 250.87L377.05 246.298Z" fill="#50BFA5"/>
<path d="M400.727 253.519L402.064 261.256L405.686 293.099L419.479 324.223C419.479 324.223 417.538 328.752 414.677 329.387L392.725 297.434L379.088 256.547L379.568 247.462L400.727 253.519Z" fill="#96D9C9"/>
<path d="M374.237 226.861L384.018 227.86C384.018 227.86 384.468 219.829 384.468 215.998C384.468 211.351 384.072 205.364 383.511 205.493C381.939 205.855 379.82 206.725 378.56 208.46C374.195 214.465 374.237 226.861 374.237 226.861Z" fill="#EF7E29"/>
<path d="M379.043 215.179C378.838 216.596 375.076 255.119 375.076 255.119C392.889 263.736 402.717 256.655 402.717 256.655C402.717 256.655 402.134 229.603 402.832 225.92C403.294 223.484 403.871 207.295 402.294 206.843C400.272 206.26 397.952 205.643 395.425 205.38C393.266 205.155 384.883 205.025 383.382 205.531C383.382 205.531 379.904 209.219 379.043 215.179Z" fill="#FFA961"/>
<path d="M420.008 324.981C420.008 324.981 415.861 336.67 414.24 337.234C413.808 337.385 411.739 337.765 411.349 338.681C411.233 338.956 411.349 339.878 411.349 339.878H419.991C419.991 339.878 421.084 334.726 421.516 332.464C421.516 332.464 423.804 326.934 423.548 326.432C423.295 325.93 420.008 324.981 420.008 324.981Z" fill="#FFA961"/>
<path d="M397.29 339.635L396.02 335.615C396.02 335.615 393.35 336.746 392.017 336.557C390.683 336.368 388.077 335.615 388.077 335.615C382.751 337.37 378.389 338.222 379.183 339.635H397.29Z" fill="#FFA961"/>
<path d="M372.864 243.295C372.824 243.279 372.679 243.164 372.596 243.095C372.912 239.321 372.855 235.663 371.672 234.428C371.701 234.369 371.96 233.818 372.229 233.248C373.601 234.31 374.251 237.13 373.996 241.709C373.978 242.024 373.888 242.264 373.815 242.656C373.417 243.094 373.058 243.376 372.864 243.295Z" fill="#FFB27D"/>
<path d="M393.043 197.933L394.19 205.511C394.19 205.511 389.998 214.535 387.494 213.752C385.395 213.095 386.687 205.112 386.687 205.112C386.687 205.112 387.832 200.824 387.489 198.679C387.146 196.533 393.043 197.933 393.043 197.933Z" fill="#FFB27D"/>
<path d="M387.489 198.679C387.146 196.533 393.043 197.933 393.043 197.933L393.138 198.562C392.966 198.983 392.754 199.343 392.498 199.618C391.181 201.039 389.121 201.89 387.342 201.955C387.519 200.799 387.629 199.559 387.489 198.679Z" fill="#FFA961"/>
<path d="M394.01 187.213C394.177 187.151 395.345 195.844 393.128 198.234C390.908 200.626 386.585 201.409 385.034 199.525C383.317 197.442 383.404 188.1 386.855 185.641C390.304 183.181 394.01 187.213 394.01 187.213Z" fill="#FFB27D"/>
<path d="M388.169 180.992C390.834 181.535 392.561 183.168 393.198 183.863C394.407 184.007 396.054 184.676 397.752 187.495C399.843 190.96 398.299 194.8 395.867 196.682C393.435 198.567 393.467 200.741 393.467 200.741L393.083 199.616C392.8 198.763 392.684 197.86 392.779 196.965C392.836 196.429 392.95 195.849 393.172 195.372C393.757 194.114 391.916 193.279 391.398 192.233C391.001 191.426 390.981 189.583 390.356 188.251L389.606 187.234C389.606 187.234 387.881 185.888 386.191 186.268C384.504 186.647 384.746 180.293 388.169 180.992Z" fill="#163560"/>
<path d="M391.512 193.779C391.496 194.839 391.975 195.707 392.588 195.718C393.2 195.728 393.708 194.877 393.726 193.817C393.744 192.757 393.262 191.887 392.651 191.878C392.04 191.868 391.53 192.719 391.512 193.779Z" fill="#FFB27D"/>
<path d="M360.537 216.043C361.323 215.239 362.056 214.407 362.737 213.559L377.337 227.837C378.234 228.713 377.925 230.488 376.647 231.799C375.369 233.111 373.606 233.462 372.707 232.583L358.109 218.306C358.939 217.604 359.752 216.85 360.537 216.043Z" fill="#163560"/>
<path d="M333.973 226.831C333.535 226.831 333.096 226.823 332.66 226.807V222.601L336.716 226.73C335.803 226.796 334.888 226.831 333.973 226.831ZM320.299 224.219C318.622 223.553 316.983 222.761 315.397 221.841V205.029L320.299 210.019V224.219ZM303.037 210.222C298.888 203.999 296.805 196.801 296.805 189.61C296.805 188.49 296.855 187.371 296.956 186.257L303.037 192.445V210.222Z" fill="#C8E1FB"/>
<path d="M303.037 210.222V192.445L308.087 197.59H303.037V210.222Z" fill="#BCD8FA"/>
<path d="M332.659 226.807C332.028 226.786 331.403 226.746 330.774 226.692C327.211 226.384 323.676 225.56 320.299 224.219V210.019L332.659 222.601V226.807Z" fill="#B4D2F9"/>
<path d="M315.397 221.841C312.951 220.421 310.629 218.7 308.486 216.675C308.373 216.567 308.258 216.459 308.145 216.349C308.145 216.348 308.147 216.349 308.145 216.348C308.103 216.308 308.06 216.265 308.017 216.225C306.116 214.364 304.455 212.352 303.037 210.222V197.59H308.087L315.397 205.029V221.841Z" fill="#B4D2F9"/>
<path d="M349.922 223.207V223.128C351.725 222.223 353.446 221.171 355.071 219.987V220.185C353.425 221.342 351.699 222.35 349.922 223.207ZM355.071 210.056L349.922 204.815V192.415L355.071 197.656V210.056ZM367.432 205.256V204.413C368.821 201.127 369.76 197.581 370.16 193.846C370.283 192.692 370.351 191.547 370.369 190.409L367.432 187.421V182.561H362.66L349.922 169.596V161.802H342.267L333.472 152.851C333.486 152.851 333.501 152.851 333.515 152.851C333.517 152.851 333.519 152.851 333.521 152.851C333.521 152.851 333.522 152.851 333.524 152.851C342.815 152.852 352.131 156.339 359.347 163.334L359.351 163.336C359.371 163.355 359.389 163.373 359.41 163.393C359.432 163.415 359.453 163.436 359.475 163.458C366.938 170.757 370.687 180.421 370.689 190.073C370.689 195.26 369.605 200.444 367.432 205.256ZM337.561 192.233L308.549 162.7C303.795 167.128 300.177 172.825 298.256 179.332C299.88 173.705 302.871 168.392 307.237 163.915C311.31 159.739 316.138 156.742 321.296 154.93C319.332 155.632 317.439 156.497 315.636 157.513L337.561 179.831V192.233Z" fill="#C8E1FB"/>
<path d="M337.561 192.233V179.831L341.544 183.886H337.561V192.233ZM349.922 169.596L342.267 161.802H349.922V169.596Z" fill="#BCD8FA"/>
<path d="M355.071 210.056V197.656L357.237 199.859H355.071V210.056ZM367.432 187.421L362.66 182.561H367.432V187.421Z" fill="#BCD8FA"/>
<path d="M346.074 224.795C347.391 224.312 348.676 223.754 349.922 223.128V223.207C348.664 223.812 347.38 224.341 346.074 224.795ZM349.922 204.815L337.561 192.233V183.886H341.544L349.922 192.415V204.815Z" fill="#B4D2F9"/>
<path d="M355.071 220.185V219.987C356.951 218.619 358.702 217.075 360.298 215.377L355.071 210.056V199.859H357.237L365.521 208.292C366.23 207.045 366.868 205.751 367.432 204.413V205.256C365.719 209.052 363.327 212.616 360.255 215.768C360.219 215.804 360.183 215.842 360.145 215.879C360.135 215.89 360.122 215.903 360.111 215.914C358.535 217.514 356.847 218.936 355.071 220.185Z" fill="#B4D2F9"/>
<path d="M336.716 226.73L332.66 222.601V191.029H320.299V210.019L315.397 205.029V197.59V179.611H303.037V192.445L296.956 186.257C297.166 183.92 297.6 181.602 298.256 179.332C300.177 172.825 303.795 167.128 308.549 162.7L337.561 192.233V226.656C337.279 226.685 336.997 226.708 336.716 226.73ZM349.922 223.128V204.815L355.071 210.056V219.987C353.446 221.171 351.725 222.223 349.922 223.128Z" fill="#E2F0FD"/>
<path d="M320.299 210.019V191.029H332.659V206.375H320.299V210.019Z" fill="#DBEBFC"/>
<path d="M315.397 197.59H308.087L303.037 192.445V179.611H315.397V197.59Z" fill="#DBEBFC"/>
<path d="M337.561 226.656V192.233L349.922 204.815V223.128C348.676 223.754 347.391 224.312 346.074 224.795C343.309 225.754 340.45 226.375 337.561 226.656Z" fill="#D6E7FC"/>
<path d="M332.659 222.601L320.299 210.019V206.375H332.659V222.601Z" fill="#D6E7FC"/>
<path d="M355.071 219.987V210.056L360.298 215.377C358.702 217.075 356.951 218.619 355.071 219.987Z" fill="#D6E7FC"/>
<path d="M315.397 205.029L308.087 197.59H315.397V205.029Z" fill="#D6E7FC"/>
<path d="M367.432 204.413V187.421L370.369 190.409C370.351 191.547 370.283 192.692 370.161 193.846C369.76 197.581 368.822 201.127 367.432 204.413ZM355.071 197.656L349.922 192.415V183.886V169.596L362.66 182.561H355.071V197.656ZM337.561 179.831L315.636 157.513C317.439 156.497 319.332 155.632 321.296 154.93C325.224 153.551 329.345 152.858 333.472 152.851L342.267 161.802H337.561V179.831Z" fill="#E2F0FD"/>
<path d="M349.922 183.886H341.544L337.561 179.831V161.802H342.267L349.922 169.596V183.886Z" fill="#DBEBFC"/>
<path d="M367.432 199.859H357.237L355.071 197.656V182.561H362.66L367.432 187.421V199.859Z" fill="#DBEBFC"/>
<path d="M349.922 192.415L341.544 183.886H349.922V192.415Z" fill="#D6E7FC"/>
<path d="M365.521 208.292L357.237 199.859H367.432V204.413C366.868 205.751 366.23 207.045 365.521 208.292Z" fill="#D6E7FC"/>
<path d="M308.017 216.225C293.377 201.906 293.029 178.486 307.237 163.915C321.447 149.344 344.835 149.139 359.475 163.458C374.115 177.775 374.465 201.195 360.255 215.768C346.045 230.339 322.659 230.542 308.017 216.225ZM304.66 219.669C321.21 235.856 347.652 235.624 363.715 219.15C379.78 202.678 379.385 176.202 362.834 160.015C346.282 143.827 319.842 144.058 303.777 160.531C287.714 177.003 288.109 203.481 304.66 219.669Z" fill="#233862"/>
<path d="M333.988 229.12C324.063 229.12 314.109 225.373 306.425 217.858C290.877 202.653 290.507 177.782 305.596 162.31C313.228 154.485 323.351 150.561 333.506 150.561C343.429 150.561 353.383 154.309 361.067 161.824C376.615 177.03 376.985 201.899 361.896 217.372C354.266 225.198 344.141 229.12 333.988 229.12ZM296.805 189.61C296.805 199.26 300.554 208.924 308.017 216.225C315.255 223.303 324.627 226.831 333.973 226.831C343.534 226.831 353.069 223.135 360.255 215.768C367.222 208.624 370.689 199.354 370.689 190.073C370.687 180.421 366.938 170.757 359.475 163.458C359.453 163.436 359.432 163.415 359.41 163.393C359.389 163.373 359.371 163.355 359.351 163.336L359.347 163.334C352.129 156.339 342.815 152.851 333.524 152.851C333.522 152.851 333.52 152.851 333.52 152.851C333.504 152.851 333.488 152.851 333.472 152.851C329.345 152.858 325.224 153.551 321.296 154.93C316.138 156.742 311.31 159.739 307.237 163.915C302.871 168.392 299.88 173.705 298.255 179.332C297.599 181.602 297.166 183.92 296.956 186.257C296.855 187.371 296.805 188.491 296.805 189.61Z" fill="#103D46"/>
<path d="M422.682 278.703L424.95 276.347C427.219 273.991 427.15 270.241 424.798 267.971L382.647 227.045C380.294 224.775 376.55 224.843 374.283 227.198L372.013 229.556C369.747 231.91 369.815 235.66 372.166 237.931L414.317 278.856C416.67 281.128 420.414 281.059 422.682 278.703Z" fill="#233862"/>
<path d="M420.358 255.528C420.369 255.445 420.369 255.362 420.362 255.28C420.099 252.612 417.887 230.209 417.515 229.257C417.179 228.397 407.259 214.187 407.259 214.187L402.382 220.84L411.923 233.586C412.137 234.396 415.579 249.518 415.579 249.518C415.579 249.518 416.285 252.275 416.6 253.926C416.456 254.324 416.314 254.7 416.19 255.008C415.874 255.667 415.5 256.208 415.162 256.662C414.736 257.234 414.03 258.485 413.943 258.82C413.843 259.209 413.659 260.017 413.557 260.505C413.454 260.995 413.312 261.562 413.289 261.826C413.275 261.988 413.109 262.31 412.98 262.537C412.789 262.876 413.115 263.273 413.483 263.151C413.83 263.036 414.1 262.588 414.265 262.307C414.736 261.517 414.986 260.073 415.103 260.15C415.219 260.226 415.631 262.674 415.696 262.951C415.76 263.228 416.255 266.071 416.533 266.591C416.81 267.111 417.18 267.023 417.277 266.699C417.362 266.418 416.97 262.44 416.97 262.44C416.97 262.44 416.922 261.932 417.143 262.091C417.366 262.249 417.727 265.86 417.881 266.389C418.036 266.918 418.388 267.197 418.687 266.773C419.05 266.256 418.426 262.426 418.426 262.426C418.426 262.426 418.356 261.945 418.561 261.99C418.766 262.035 419.023 265.111 419.183 265.378C419.343 265.644 419.747 265.739 419.939 265.297C420.166 264.773 419.578 261.36 419.578 261.36C419.578 261.36 419.607 261.088 419.736 261.178C419.864 261.268 420.27 263.876 420.534 264.118C420.757 264.319 420.942 264.123 420.942 264.123C421.429 263.79 420.684 261.31 420.691 260.077C420.698 258.844 420.128 257.458 420.297 255.989C420.308 255.897 420.338 255.67 420.358 255.528Z" fill="#F8A492"/>
<path d="M415.009 223.188L406.534 228.885C406.534 228.885 401.759 221.767 399.194 219.233C395.982 216.059 400.364 206.336 402.433 206.885C407.063 208.116 415.009 223.188 415.009 223.188Z" fill="#FFA961"/>
<path d="M432.447 338.94H10.778V341.46H432.447V338.94Z" fill="#2A4E96"/>
</svg>
