<svg width="318" height="318" viewBox="0 0 318 318" fill="none" xmlns="http://www.w3.org/2000/svg">
<path d="M9.31644 219.663C28.221 219.663 45.9755 212.37 59.3145 199.126C72.6486 185.889 79.9901 168.258 79.9901 149.482C79.9901 144.336 84.1631 140.166 89.3065 140.166C94.4524 140.166 98.6229 144.336 98.6229 149.482C98.6229 168.258 105.967 185.889 119.301 199.126C132.64 212.37 150.394 219.663 169.299 219.663C174.445 219.663 178.615 223.834 178.615 228.98C178.615 234.126 174.445 238.296 169.299 238.296C130.33 238.296 98.6229 269.873 98.6229 308.684C98.6229 313.829 94.4524 318 89.3065 318C84.1631 318 79.9901 313.829 79.9901 308.684C79.9901 269.873 48.2852 238.296 9.31644 238.296C4.17058 238.296 3.05176e-05 234.126 3.05176e-05 228.98C3.05176e-05 223.834 4.17058 219.663 9.31644 219.663ZM89.3065 269.116C97.9582 251.81 112.1 237.687 129.442 229.031C120.939 224.814 113.088 219.215 106.173 212.349C99.227 205.453 93.5668 197.617 89.3089 189.125C85.0486 197.617 79.3884 205.453 72.4448 212.349C65.5303 219.215 57.6768 224.814 49.1756 229.031C66.5153 237.687 80.6573 251.81 89.3065 269.116Z" fill="url(#paint0_linear)"/>
<path d="M190.53 146.818C217.968 146.818 240.29 124.66 240.29 97.4219C240.29 92.2785 244.461 88.1055 249.607 88.1055C254.753 88.1055 258.923 92.2785 258.923 97.4219C258.923 124.66 281.246 146.818 308.684 146.818C313.829 146.818 318 150.991 318 156.135C318 161.281 313.829 165.451 308.684 165.451C281.246 165.451 258.923 187.679 258.923 215C258.923 220.144 254.753 224.317 249.607 224.317C244.461 224.317 240.29 220.144 240.29 215C240.29 187.679 217.968 165.451 190.53 165.451C185.384 165.451 181.214 161.281 181.214 156.135C181.214 150.991 185.384 146.818 190.53 146.818ZM249.607 180.675C255.549 170.551 264.035 162.081 274.184 156.147C264.035 150.225 255.549 141.774 249.607 131.672C243.665 141.774 235.179 150.225 225.03 156.147C235.179 162.081 243.665 170.548 249.607 180.675Z" fill="url(#paint1_linear)"/>
<path d="M175.374 64.3802C155.196 64.3802 138.778 80.6718 138.778 100.695C138.778 105.838 134.607 110.011 129.462 110.011C124.316 110.011 120.145 105.838 120.145 100.695C120.145 80.6063 103.727 64.2638 83.5492 64.2638C78.4033 64.2638 74.2328 60.0908 74.2328 54.9474C74.2328 49.8015 78.4033 45.631 83.5492 45.631C103.727 45.631 120.145 29.3394 120.145 9.31641C120.145 4.17055 124.316 0 129.462 0C134.607 0 138.778 4.17055 138.778 9.31641C138.778 29.4049 155.196 45.7474 175.374 45.7474C180.52 45.7474 184.69 49.918 184.69 55.0638C184.69 60.2097 180.52 64.3802 175.374 64.3802ZM129.44 39.8592C125.42 45.8178 120.259 50.9539 114.272 54.9571C120.281 58.9821 125.456 64.1522 129.483 70.1521C133.504 64.1934 138.664 59.0573 144.652 55.0541C138.642 51.0292 133.465 45.859 129.44 39.8592Z" fill="url(#paint2_linear)"/>
<defs>
<linearGradient id="paint0_linear" x1="-763.581" y1="539.404" x2="177.345" y2="137.194" gradientUnits="userSpaceOnUse">
<stop stop-color="#96BEF9"/>
<stop offset="1" stop-color="#F4F6FB"/>
</linearGradient>
<linearGradient id="paint1_linear" x1="-403.547" y1="393.9" x2="317.065" y2="85.9181" gradientUnits="userSpaceOnUse">
<stop stop-color="#96BEF9"/>
<stop offset="1" stop-color="#F4F6FB"/>
</linearGradient>
<linearGradient id="paint2_linear" x1="-397.974" y1="246.975" x2="183.965" y2="-1.69812" gradientUnits="userSpaceOnUse">
<stop stop-color="#96BEF9"/>
<stop offset="1" stop-color="#F4F6FB"/>
</linearGradient>
</defs>
</svg>
