<svg width="40" height="40" viewBox="0 0 40 40" fill="none" xmlns="http://www.w3.org/2000/svg">
<path d="M36.5306 16.5742L36.5308 16.5743C38.3906 17.7717 39.5 19.8046 39.5 22.015V24.2666C39.5 27.0861 37.6854 29.492 35.1602 30.3747L34.8886 30.4696L34.8342 30.7522C34.033 34.9134 30.3636 38.0665 25.9734 38.0665C25.6381 38.0665 25.3663 37.7948 25.3663 37.4595C25.3663 37.1243 25.6382 36.8525 25.9734 36.8525C29.4656 36.8525 32.4272 34.5498 33.4242 31.3851L33.6291 30.7349H32.9473H31.4605C30.5158 30.7349 29.7465 29.9655 29.7465 29.0209V17.2608C29.7465 16.3161 30.5158 15.5468 31.4605 15.5468H33.0317C33.0523 15.5468 33.0678 15.5471 33.0877 15.5476C33.1021 15.548 33.1188 15.5484 33.1415 15.5487L33.727 15.558L33.6445 14.9783C32.693 8.2994 26.9385 3.1474 20 3.1474C13.0615 3.1474 7.30697 8.29948 6.35554 14.9781L6.27312 15.5567L6.85751 15.5486C6.88421 15.5482 6.90166 15.5478 6.91634 15.5474C6.93392 15.547 6.94752 15.5466 6.96828 15.5466H8.53953C9.48415 15.5466 10.2535 16.316 10.2535 17.2607V29.0208C10.2535 29.9656 9.48416 30.7349 8.53953 30.7349H6.96828C3.40208 30.7349 0.5 27.8327 0.5 24.2666V22.015C0.5 19.8046 1.60948 17.7716 3.46998 16.5737L3.47009 16.5737C3.87196 16.3147 4.29915 16.1032 4.7437 15.9404L5.0401 15.8319L5.06961 15.5176C5.78402 7.90866 12.2078 1.93341 20 1.93341C27.7922 1.93341 34.2161 7.90873 34.9304 15.5177L34.9599 15.8319L35.2562 15.9405C35.7011 16.1034 36.1284 16.315 36.5306 16.5742ZM9.03953 17.2607L9.03947 16.7608H8.53953H6.96828C5.95697 16.7608 4.97415 17.0488 4.1276 17.5943C2.61711 18.5669 1.71406 20.2204 1.71406 22.0151V24.2667C1.71406 27.1643 4.07065 29.5209 6.96828 29.5209H8.53953C8.55358 29.5209 8.56747 29.5203 8.58116 29.5192C8.58801 29.5187 8.59478 29.518 8.60148 29.5172L8.61148 29.5158L8.61643 29.5151L8.61889 29.5147L8.62012 29.5145L8.62073 29.5144L8.62104 29.5144L8.62119 29.5144C8.62127 29.5143 8.62134 29.5143 8.54094 29.0208L8.62134 29.5143L9.04099 29.446L9.04094 29.0208L9.03953 17.2607ZM30.9605 29.5208H31.4605H33.0318C35.9295 29.5208 38.286 27.1642 38.286 24.2666V22.0149C38.286 20.2204 37.3833 18.567 35.8735 17.5948C35.0262 17.0488 34.0433 16.7607 33.0318 16.7607H31.4605H30.9605V17.2607V29.0208V29.5208Z" fill="#739AF0" stroke="#739AF0"/>
</svg>
