<svg width="32" height="32" viewBox="0 0 32 32" fill="none" xmlns="http://www.w3.org/2000/svg">
<g clip-path="url(#clip0)">
<path d="M18.2172 32H13.7825C12.6998 32 11.7785 31.26 11.5412 30.2013L10.9785 27.704C10.0625 27.316 9.19049 26.8093 8.37316 26.192L5.94383 26.9587C4.90116 27.28 3.76783 26.8387 3.24516 25.908L1.03449 22.084C0.505161 21.1373 0.683828 19.9707 1.46383 19.2373L3.34649 17.5067C3.28916 17 3.25983 16.4947 3.25983 16C3.25983 15.5053 3.28783 15 3.34516 14.4933L1.47183 12.7707C0.683827 12.0293 0.503827 10.864 1.02783 9.92933L3.25183 6.08266C3.76916 5.16266 4.90116 4.71733 5.94116 5.04133L8.37316 5.80799C9.19049 5.19066 10.0638 4.68399 10.9785 4.29599L11.5412 1.79733C11.7785 0.739992 12.6998 -7.62939e-06 13.7825 -7.62939e-06H18.2172C19.2998 -7.62939e-06 20.2212 0.739992 20.4585 1.79866L21.0212 4.29599C21.9372 4.68399 22.8092 5.19066 23.6265 5.80799L26.0558 5.04133C27.0958 4.71599 28.2305 5.16133 28.7545 6.09199L30.9652 9.91599C31.4945 10.8627 31.3158 12.0293 30.5358 12.7627L28.6532 14.4933C28.7105 15 28.7385 15.5053 28.7385 16C28.7385 16.4947 28.7105 17 28.6532 17.5067L30.5278 19.2293C30.5305 19.232 30.5332 19.2347 30.5358 19.2373C31.3158 19.9707 31.4958 21.136 30.9718 22.0707L28.7478 25.9173C28.2292 26.8373 27.0972 27.2827 26.0585 26.9587L23.6252 26.1907C22.8078 26.808 21.9345 27.3147 21.0198 27.7027L20.4572 30.2013C20.2212 31.26 19.2998 32 18.2172 32ZM8.57849 24.0787C8.80783 24.0787 9.03316 24.1573 9.21583 24.3067C10.1292 25.06 11.1292 25.64 12.1865 26.0307C12.5038 26.148 12.7412 26.4187 12.8158 26.7493L13.4945 29.7627C13.5252 29.9 13.6478 30 13.7852 30H18.2198C18.3572 30 18.4785 29.9 18.5105 29.764L19.1892 26.7507C19.2638 26.42 19.4998 26.1493 19.8185 26.032C20.8758 25.6413 21.8758 25.06 22.7892 24.308C23.0505 24.092 23.4012 24.0227 23.7265 24.1253L26.6612 25.052C26.7998 25.0947 26.9492 25.0467 27.0145 24.928L29.2385 21.0827C29.3052 20.964 29.2812 20.8013 29.1732 20.6973L26.9225 18.628C26.6772 18.4027 26.5612 18.072 26.6118 17.7427C26.6998 17.156 26.7452 16.5693 26.7452 16C26.7452 15.4307 26.7012 14.8453 26.6118 14.2573C26.5625 13.928 26.6785 13.5973 26.9225 13.372L29.1785 11.2973C29.2798 11.2013 29.3065 11.0373 29.2318 10.9053L27.0212 7.08266C26.9492 6.95599 26.8052 6.90666 26.6585 6.94933L23.7278 7.87466C23.4025 7.97733 23.0518 7.90799 22.7905 7.69199C21.8772 6.93866 20.8772 6.35866 19.8198 5.96799C19.5025 5.85066 19.2652 5.57999 19.1905 5.24933L18.5118 2.23599C18.4758 2.09999 18.3545 1.99999 18.2172 1.99999H13.7825C13.6452 1.99999 13.5238 2.09999 13.4918 2.23599L12.8132 5.25066C12.7398 5.58133 12.5025 5.85066 12.1852 5.96933C11.1278 6.35999 10.1278 6.93999 9.21449 7.69333C8.95316 7.90933 8.60249 7.97733 8.27716 7.87599L5.34249 6.94933C5.20383 6.90666 5.05449 6.95599 4.98916 7.07333L2.76516 10.9173C2.69716 11.0373 2.72383 11.2013 2.83316 11.3053L5.08249 13.372C5.32783 13.5973 5.44383 13.928 5.39316 14.2573C5.30516 14.844 5.25983 15.4307 5.25983 16C5.25983 16.5693 5.30383 17.1547 5.39316 17.7427C5.44249 18.072 5.32649 18.4027 5.08249 18.628L2.82649 20.7027C2.72516 20.7987 2.69849 20.9627 2.77316 21.0947L4.98383 24.9173C5.05716 25.0453 5.20249 25.0973 5.34649 25.0507L8.27716 24.1253C8.37583 24.0933 8.47716 24.0787 8.57849 24.0787Z" fill="#739AF0"/>
<path d="M15.0016 21.3333C14.9256 21.3333 14.851 21.3253 14.775 21.308C14.2376 21.184 13.9016 20.6466 14.0256 20.1093L16.0256 11.4427C16.1496 10.9027 16.6936 10.5707 17.2243 10.692C17.7616 10.816 18.0976 11.3533 17.9736 11.8907L15.9736 20.5573C15.867 21.0213 15.4563 21.3333 15.0016 21.3333Z" fill="#739AF0"/>
<path d="M20.3334 20C20.06 20 19.788 19.8893 19.5894 19.6693C19.22 19.2587 19.2534 18.6267 19.664 18.256L22.172 16L19.664 13.744C19.2534 13.3747 19.22 12.7427 19.5894 12.3307C19.96 11.9213 20.592 11.888 21.0027 12.256L24.336 15.256C24.5467 15.4467 24.6667 15.7173 24.6667 16C24.6667 16.2827 24.5467 16.5533 24.336 16.744L21.0027 19.744C20.8107 19.916 20.572 20 20.3334 20Z" fill="#739AF0"/>
<path d="M11.667 20C11.4283 20 11.1896 19.916 10.9976 19.744L7.6643 16.744C7.45363 16.5533 7.33363 16.2827 7.33363 16C7.33363 15.7173 7.45363 15.4467 7.6643 15.256L10.9976 12.256C11.4083 11.8867 12.039 11.92 12.411 12.3307C12.7803 12.7414 12.747 13.3733 12.3363 13.744L9.8283 16L12.3363 18.256C12.747 18.6253 12.7803 19.2573 12.411 19.6693C12.2123 19.8893 11.9403 20 11.667 20Z" fill="#739AF0"/>
</g>
<defs>
<clipPath id="clip0">
<path d="M0 0H32V32H0V0Z" fill="white"/>
</clipPath>
</defs>
</svg>
