<svg width="40" height="40" viewBox="0 0 40 40" fill="none" xmlns="http://www.w3.org/2000/svg">
<g clip-path="url(#clip0)">
<path d="M33.7761 7.9351L32.9191 8.79202H34.131H34.4369C36.0514 8.79202 37.3654 10.1061 37.3653 11.7206V28.3123C37.3653 29.9269 36.0512 31.2409 34.4367 31.2409H24.153H23.6116L23.6525 31.7807L24.0996 37.685L24.1347 38.149H24.6001H26.5954C26.9676 38.149 27.2699 38.4514 27.2699 38.8235C27.2699 39.1957 26.9676 39.4981 26.5954 39.4981H13.4036C13.0314 39.4981 12.729 39.1957 12.729 38.8235C12.729 38.4514 13.0314 38.149 13.4036 38.149H15.3989H15.8642L15.8994 37.685L16.3464 31.7807L16.3873 31.2409H15.8459H5.56222C3.94776 31.2409 2.63367 29.9269 2.63367 28.3123V11.7206C2.63367 10.1061 3.94776 8.79202 5.56222 8.79202H23.5987H23.8071L23.9543 8.64438L31.1571 1.41643C31.1574 1.41615 31.1576 1.41588 31.1579 1.4156C32.3654 0.216445 34.4132 0.166993 35.6961 1.44986L36.051 1.09492L35.6961 1.44987C36.9449 2.69858 36.9592 4.70942 35.7417 5.976L35.7415 5.97605C35.7415 5.97603 35.7371 5.98058 35.725 5.99271L35.662 6.05561L35.4385 6.27853L34.7632 6.95162L33.7761 7.9351ZM21.6092 10.9973L22.4625 10.141H21.2537H5.56214C4.69041 10.141 3.98254 10.8489 3.98254 11.7206V28.3124C3.98254 29.1841 4.69043 29.8919 5.56214 29.8919H5.56741H5.57324H5.57965H5.58663H5.59417H5.60229H5.61096H5.6202H5.63H5.64036H5.65127H5.66273H5.67474H5.68731H5.70041H5.71407H5.72826H5.743H5.75827H5.77407H5.79041H5.80728H5.82468H5.84261H5.86106H5.88003H5.89952H5.91953H5.94005H5.96109H5.98264H6.0047H6.02726H6.05033H6.0739H6.09797H6.12254H6.1476H6.17316H6.19921H6.22574H6.25277H6.28027H6.30827H6.33674H6.36568H6.39511H6.42501H6.45538H6.48621H6.51752H6.54929H6.58152H6.61421H6.64736H6.68097H6.71503H6.74954H6.7845H6.81991H6.85576H6.89205H6.92879H6.96596H7.00357H7.04162H7.08009H7.119H7.15833H7.19808H7.23826H7.27886H7.31988H7.36132H7.40317H7.44543H7.4881H7.53117H7.57466H7.61854H7.66283H7.70751H7.75259H7.79807H7.84393H7.89019H7.93684H7.98386H8.03128H8.07907H8.12724H8.17579H8.22471H8.27401H8.32368H8.37371H8.42411H8.47487H8.52599H8.57747H8.62931H8.6815H8.73405H8.78694H8.84018H8.89377H8.9477H9.00198H9.05659H9.11154H9.16682H9.22244H9.27838H9.33466H9.39125H9.44818H9.50542H9.56299H9.62087H9.67906H9.73757H9.79639H9.85552H9.91495H9.97469H10.0347H10.0951H10.1557H10.2166H10.2778H10.3394H10.4012H10.4632H10.5256H10.5883H10.6512H10.7144H10.7779H10.8417H10.9057H10.97H11.0345H11.0994H11.1645H11.2298H11.2954H11.3613H11.4274H11.4938H11.5604H11.6272H11.6943H11.7617H11.8293H11.8971H11.9651H12.0334H12.102H12.1707H12.2397H12.3089H12.3783H12.448H12.5178H12.5879H12.6582H12.7287H12.7994H12.8703H12.9415H13.0128H13.0843H13.156H13.2279H13.3001H13.3724H13.4449H13.5175H13.5904H13.6635H13.7367H13.8101H13.8837H13.9574H14.0314H14.1054H14.1797H14.2541H14.3287H14.4035H14.4784H14.5535H14.6287H14.704H14.7796H14.8552H14.931H15.007H15.0831H15.1593H15.2357H15.3122H15.3888H15.4656H15.5425H15.6195H15.6967H15.7739H15.8513H15.9288H16.0064H16.0841H16.162H16.2399H16.318H16.3961H16.4744H16.5527H16.6312H16.7097H16.7883H16.8671H16.9459H17.0248H17.1037H17.1828H17.2619H17.3412H17.4204H17.4998H17.5792H17.6587H17.7383H17.8179H17.8976H17.9774H18.0572H18.137H18.217H18.2969H18.3769H18.457H18.5371H18.6172H18.6974H18.7776H18.8579H18.9382H19.0185H19.0988H19.1792H19.2596H19.34H19.4204H19.5009H19.5814H19.6618H19.7423H19.8228H19.9033H19.9839H20.0644H20.1449H20.2254H20.3059H20.3864H20.4669H20.5473H20.6278H20.7083H20.7887H20.8691H20.9495H21.0298H21.1102H21.1905H21.2707H21.351H21.4312H21.5114H21.5915H21.6716H21.7516H21.8316H21.9115H21.9914H22.0713H22.151H22.2308H22.3104H22.39H22.4696H22.549H22.6284H22.7078H22.787H22.8662H22.9453H23.0244H23.1033H23.1822H23.2609H23.3396H23.4182H23.4967H23.5751H23.6534H23.7316H23.8097H23.8877H23.9656H24.0434H24.1211H24.1987H24.2761H24.3534H24.4307H24.5077H24.5847H24.6615H24.7383H24.8148H24.8913H24.9676H25.0438H25.1198H25.1957H25.2715H25.3471H25.4225H25.4978H25.573H25.648H25.7228H25.7975H25.872H25.9464H26.0206H26.0946H26.1685H26.2422H26.3157H26.389H26.4621H26.5351H26.6079H26.6805H26.7529H26.8251H26.8972H26.969H27.0407H27.1121H27.1833H27.2544H27.3252H27.3958H27.4662H27.5364H27.6064H27.6762H27.7458H27.8151H27.8842H27.9531H28.0217H28.0902H28.1584H28.2263H28.294H28.3615H28.4288H28.4958H28.5625H28.629H28.6953H28.7613H28.8271H28.8925H28.9578H29.0228H29.0875H29.1519H29.2161H29.28H29.3437H29.407H29.4701H29.5329H29.5955H29.6577H29.7197H29.7814H29.8428H29.9039H29.9647H30.0252H30.0854H30.1453H30.2049H30.2642H30.3232H30.3819H30.4403H30.4983H30.5561H30.6135H30.6706H30.7274H30.7839H30.84H30.8958H30.9513H31.0064H31.0612H31.1157H31.1698H31.2236H31.2771H31.3302H31.3829H31.4353H31.4873H31.539H31.5904H31.6413H31.6919H31.7422H31.7921H31.8416H31.8907H31.9395H31.9879H32.0359H32.0835H32.1308H32.1776H32.2241H32.2702H32.3159H32.3612H32.4061H32.4506H32.4948H32.5385H32.5818H32.6247H32.6672H32.7093H32.7509H32.7922H32.833H32.8735H32.9135H32.9531H32.9922H33.0309H33.0692H33.1071H33.1445H33.1815H33.218H33.2542H33.2898H33.325H33.3598H33.3941H33.428H33.4614H33.4944H33.5269H33.5589H33.5905H33.6216H33.6522H33.6824H33.7121H33.7413H33.7701H33.7983H33.8261H33.8534H33.8802H33.9066H33.9324H33.9578H33.9826H34.007H34.0308H34.0542H34.077H34.0994H34.1212H34.1426H34.1634H34.1837H34.2035H34.2228H34.2415H34.2597H34.2774H34.2946H34.3113H34.3274H34.343H34.358H34.3725H34.3865H34.3999H34.4128H34.4251H34.4369C35.1332 29.8919 35.7249 29.4404 35.9349 28.8144H36.0166V28.3124V11.7206C36.0166 10.8488 35.3087 10.141 34.437 10.141H31.7704H31.563L31.4161 10.2874L23.4311 18.2449L23.2606 18.4148L23.2864 18.6542C23.4593 20.258 22.9265 21.8724 21.7324 23.0666L21.7319 23.0671C21.346 23.4543 20.7193 23.8222 19.9118 24.1582C19.1127 24.4908 18.1755 24.7763 17.2036 25.0172C15.26 25.4987 13.2203 25.791 11.9612 25.9279L11.96 25.928C11.5361 25.9752 11.1708 25.6146 11.2172 25.1849C11.3505 23.9618 11.6418 21.9241 12.1241 19.9723C12.3652 18.9963 12.6515 18.0525 12.985 17.2472C13.3221 16.4334 13.6911 15.8014 14.0792 15.4137L14.0795 15.4134C15.2851 14.2069 16.9057 13.6887 18.4917 13.8596L18.7311 13.8854L18.9011 13.7149L21.6092 10.9973ZM22.2403 38.1491H22.7817L22.7408 37.6093L22.2937 31.705L22.2586 31.241H21.7932H18.2058H17.7404L17.7053 31.705L17.2582 37.6093L17.2174 38.1491H17.7588H22.2403ZM32.115 2.36691L32.1095 2.37209L32.1042 2.37744C25.5365 8.96745 24.7305 9.77601 23.9246 10.5847C23.3921 11.1191 22.8596 11.6535 20.6644 13.8565L20.2178 14.3047L20.7558 14.6377C21.4758 15.0833 22.08 15.7002 22.5087 16.3908L22.842 16.9276L23.2895 16.4816C29.1987 10.5926 30.0751 9.71909 30.5326 9.26307C30.9716 8.82553 31.025 8.77229 34.7685 5.04185L34.7738 5.03649L34.779 5.03098C35.4751 4.29412 35.4603 3.12218 34.7416 2.4035C34.0236 1.68543 32.8516 1.671 32.115 2.36691ZM12.7559 23.8191L12.655 24.4906L13.3266 24.3901C14.1064 24.2734 15.6414 24.012 17.1254 23.6392C17.8669 23.453 18.6064 23.2363 19.2368 22.9921C19.8497 22.7546 20.4245 22.4673 20.7788 22.113L20.7788 22.113C22.3589 20.5328 22.3665 17.9546 20.7788 16.3671C19.1884 14.7767 16.6154 14.783 15.033 16.367C14.6797 16.7202 14.3931 17.2939 14.1561 17.9055C13.9123 18.5347 13.6957 19.2733 13.5094 20.0143C13.1363 21.4975 12.8738 23.0337 12.7559 23.8191Z" fill="#739AF0" stroke="#739AF0" stroke-width="1.00392"/>
</g>
<defs>
<clipPath id="clip0">
<path d="M0 0H40V40H0V0Z" fill="white"/>
</clipPath>
</defs>
</svg>
