<svg width="50" height="50" viewBox="0 0 50 50" fill="none" xmlns="http://www.w3.org/2000/svg">
<path d="M21.8435 49.6727C19.8231 48.993 19.0326 48.5414 12.9136 44.5711C11.1795 43.4459 10.1883 42.4255 10.1883 41.7656C10.1883 41.4619 10.9197 41.4803 11.1168 41.7889C11.3232 42.1121 13.4267 43.5559 14.4355 44.0669C17.8342 45.7881 21.5305 46.6874 25.2066 46.6874C29.1575 46.6874 32.2783 45.9137 36.2124 43.9589C37.4333 43.3522 38.4927 42.9165 38.5667 42.9907C38.8358 43.2602 38.1305 44.1656 37.1596 44.7972C32.7733 47.6505 30.2552 49.1287 29.0539 49.5555C27.5498 50.0898 23.2891 50.159 21.8435 49.6727V49.6727ZM32.2065 43.3096C32.0445 43.047 31.9936 43.0814 33.3307 42.5494C38.3593 40.5487 42.2037 36.4934 44.242 31.0396C45.0437 28.8945 45.3514 26.9517 45.3514 24.0342C45.3514 22.5601 45.4252 21.354 45.5155 21.354C45.6946 21.354 46.0559 22.0131 46.2207 22.6404C46.6753 24.3712 47.3502 33.0515 47.1233 34.2499C46.652 36.74 45.0585 38.7264 42.5986 39.8903C41.7766 40.2792 40.7486 40.7716 40.314 40.9845C39.532 41.3677 36.8247 42.3947 34.6408 43.1368C33.3888 43.5623 32.4054 43.632 32.2065 43.3096ZM14.7318 42.3514C14.0256 42.0502 12.6477 41.4227 11.6699 40.957C10.692 40.4913 9.40835 39.8953 8.81723 39.6326C6.18556 38.463 3.82297 36.2597 3.07219 34.2749C2.28271 32.1878 2.35246 26.2052 3.21017 22.4425C3.90217 19.4067 4.26194 19.6403 4.26194 23.1255C4.26194 24.6441 4.35859 26.3586 4.47673 26.9354C5.80322 33.4129 9.67746 38.6767 15.3747 41.7422C16.7925 42.505 17.1605 42.9468 16.3499 42.913C16.1662 42.9055 15.4381 42.6526 14.7318 42.3514ZM26.7373 38.4805L26.6833 35.0237L23.3251 37.9769C21.478 39.6012 19.8112 40.9341 19.6211 40.9389C19.2944 40.9474 19.2754 39.9951 19.2754 23.6417C19.2754 13.9764 19.3516 6.28844 19.4481 6.22871C19.5431 6.1699 20.2537 6.06283 21.0272 5.99082L22.4335 5.85987L22.4842 20.1162L22.5349 34.3725L24.6437 32.5638L26.7526 30.755L26.7673 18.4347L26.782 6.11437H27.2608C27.5242 6.11437 28.1909 6.21874 28.7424 6.34629L29.7452 6.57819V23.9571V41.3361L29.3008 41.4372C28.0591 41.7197 27.0632 41.9282 26.9348 41.9325C26.8558 41.9353 26.7669 40.3818 26.7372 38.4805H26.7373ZM31.3256 23.8279C31.3256 7.98787 31.3406 7.30188 31.6846 7.30188C32.4543 7.30188 35.5669 9.41178 37.4755 11.2273C41.2342 14.8026 42.8467 18.4392 43.1068 23.9269C43.2179 26.27 43.1816 26.8037 42.812 28.2645C42.1167 31.0128 42.3972 30.854 38.239 30.854H34.6916L34.6384 35.1405L34.5851 39.427L33.2132 39.8905C32.4587 40.1454 31.7253 40.354 31.5835 40.354C31.3735 40.354 31.3256 37.2897 31.3256 23.8279H31.3256ZM39.9141 25.9885C40.3434 21.3986 38.5624 16.529 35.2909 13.3477L34.4864 12.5653V20.0274V27.4894H37.13H39.7737L39.9141 25.9885ZM15.5156 39.117L14.238 38.2759L14.1847 33.9712L14.1315 29.6665H12.4562C11.5348 29.6665 10.7809 29.708 10.7809 29.7587C10.7809 29.8095 10.9352 30.1751 11.1238 30.5714L11.4667 31.2918L10.8793 31.7611C10.1214 32.3665 9.28536 32.7101 8.91583 32.5681C8.37209 32.359 7.25103 29.7256 6.66457 27.2797C6.30226 25.7686 6.17949 22.7448 6.41335 21.0924C7.21469 15.4303 10.5307 10.6308 15.5784 7.82694C16.0984 7.53813 16.6984 7.30183 16.9118 7.30183C17.2945 7.30183 17.2999 7.53208 17.2999 23.63C17.2999 36.7812 17.2506 39.9581 17.0466 39.9581C16.9072 39.9581 16.2183 39.5796 15.5156 39.117L15.5156 39.117ZM14.1392 19.9379V12.7822L13.72 13.1592C12.2075 14.5197 10.5748 17.3836 9.97729 19.7244C9.59005 21.2414 9.45572 24.7346 9.72246 26.3514L9.84491 27.0936H11.9921H14.1392V19.9379ZM48.0512 26.9616C47.9787 26.8891 47.9195 25.6966 47.9195 24.3116C47.9195 21.5105 47.573 19.2937 46.7968 17.1285C45.5731 13.7152 43.7375 10.8268 41.1086 8.17789C39.2303 6.28536 37.6348 5.13735 34.9033 3.71297C33.9917 3.23765 33.2361 2.75969 33.2241 2.65084C33.2122 2.54198 33.4924 2.42492 33.8469 2.3907C34.3248 2.34461 35.3714 2.74329 37.8965 3.93357C39.7694 4.81635 42.0497 5.86857 42.9639 6.27182C44.3099 6.86553 44.9487 7.31169 46.3222 8.61724C48.619 10.8005 49.4561 12.4477 49.9787 15.8123C50.1133 16.6789 49.5769 24.1092 49.2929 25.3123C48.9781 26.6458 48.444 27.3552 48.0512 26.9616ZM1.12131 26.0545C0.861339 25.364 0.543499 23.0892 0.312483 20.2654C0.196709 18.8503 0.0619712 17.3151 0.013067 16.8537C-0.0358371 16.3924 0.0568393 15.2346 0.219082 14.2808C0.916049 10.1828 3.39802 7.2088 7.52144 5.53097C8.39065 5.17728 9.59073 4.62464 10.1883 4.30285C12.5921 3.00847 14.8721 2.33012 15.0582 2.85397C15.0979 2.96569 14.4516 3.39362 13.6219 3.80493C8.91255 6.13957 4.7272 10.9969 2.94042 16.2014C2.2517 18.2074 1.8914 20.7655 1.8914 23.6492C1.8914 26.0717 1.84613 26.4998 1.5902 26.4998C1.42453 26.4998 1.21353 26.2994 1.12131 26.0545ZM10.9785 7.58931C10.9785 7.11754 11.7805 6.47425 14.1953 5.00895C15.4139 4.26951 17.3907 3.02311 18.5881 2.23918C21.3415 0.436511 21.9823 0.168904 23.8715 0.0326222C26.1829 -0.134114 27.5632 0.310445 30.0235 2.014C31.9907 3.37615 33.6912 4.49479 35.5225 5.6315C36.5205 6.25098 37.2695 7.34897 36.7704 7.4609C36.6231 7.49391 35.9822 7.1835 35.3463 6.77103C33.9135 5.84171 31.1436 4.66361 29.0539 4.0947C26.8766 3.50196 21.658 3.45381 19.5717 4.00719C17.3196 4.60457 14.7774 5.71168 13.0708 6.8383C11.3929 7.946 10.9785 8.09472 10.9785 7.58928V7.58931Z" fill="#739AF0"/>
</svg>