<svg width="24" height="24" viewBox="0 0 24 24" fill="none" xmlns="http://www.w3.org/2000/svg">
<path fill-rule="evenodd" clip-rule="evenodd" d="M24 12C24 18.6274 18.6274 24 12 24C5.37258 24 0 18.6274 0 12C0 5.37258 5.37258 0 12 0C18.6274 0 24 5.37258 24 12ZM17.0613 7.27898L5.49126 11.74C4.69826 12.05 4.71226 12.489 5.35526 12.693L8.31726 13.617L15.1883 9.29098C15.5073 9.07898 15.8033 9.19898 15.5613 9.41198L10.0013 14.435L9.78826 17.488C10.0983 17.488 10.2333 17.353 10.3933 17.193L11.8403 15.799L14.8403 18.01C15.3873 18.32 15.7783 18.16 15.9243 17.502L17.8943 8.22098L17.8933 8.22198C18.0673 7.40998 17.5983 7.08498 17.0613 7.27898Z" fill="white"/>
</svg>
