<svg width="24" height="24" viewBox="0 0 24 24" fill="none" xmlns="http://www.w3.org/2000/svg">
<g clip-path="url(#clip0)">
<path d="M11.7431 18.7895H13.1772C13.1772 18.7895 13.6107 18.7415 13.8312 18.5029C14.0352 18.2839 14.0277 17.8729 14.0277 17.8729C14.0277 17.8729 13.9992 15.9482 14.8933 15.6647C15.7739 15.3857 16.905 17.5249 18.1035 18.3484C19.0096 18.971 19.6982 18.8345 19.6982 18.8345L22.9039 18.7895C22.9039 18.7895 24.581 18.686 23.786 17.3674C23.7215 17.2593 23.3224 16.3923 21.4023 14.6102C19.3921 12.744 19.6622 13.047 22.0833 9.82029C23.5579 7.85515 24.1475 6.65506 23.963 6.14202C23.7875 5.65298 22.7029 5.78199 22.7029 5.78199L19.0966 5.803C19.0966 5.803 18.8296 5.76699 18.6301 5.8855C18.4366 6.00251 18.3121 6.27253 18.3121 6.27253C18.3121 6.27253 17.7405 7.79364 16.9785 9.08674C15.3718 11.8154 14.7283 11.9595 14.4658 11.7899C13.8552 11.3954 14.0082 10.2028 14.0082 9.35676C14.0082 6.71206 14.4088 5.60948 13.2267 5.32446C12.8337 5.22995 12.5456 5.16695 11.5421 5.15645C10.255 5.14295 9.16438 5.16095 8.54784 5.46247C8.13681 5.66349 7.82029 6.11202 8.0138 6.13752C8.25232 6.16902 8.79236 6.28303 9.07888 6.67306C9.4494 7.1756 9.4359 8.30668 9.4359 8.30668C9.4359 8.30668 9.64892 11.4194 8.93937 11.8064C8.45183 12.072 7.78428 11.5304 6.35168 9.05374C5.61812 7.78614 5.06308 6.38354 5.06308 6.38354C5.06308 6.38354 4.95658 6.12252 4.76606 5.98301C4.53505 5.8135 4.21102 5.75949 4.21102 5.75949L0.78177 5.78049C0.78177 5.78049 0.267232 5.7955 0.0782185 6.01901C-0.0897938 6.21853 0.0647176 6.62956 0.0647176 6.62956C0.0647176 6.62956 2.74991 12.9105 5.78914 16.0773C8.57784 18.98 11.7431 18.7895 11.7431 18.7895Z" fill="white"/>
</g>
<defs>
<clipPath id="clip0">
<path d="M0 0H24V24H0V0Z" fill="white"/>
</clipPath>
</defs>
</svg>
