<svg width="40" height="40" viewBox="0 0 40 40" fill="none" xmlns="http://www.w3.org/2000/svg">
<mask id="path-2-inside-1" fill="white">
<path d="M36.4844 25.8594H35.3125V24.6875C35.3125 22.749 33.7354 21.1719 31.7969 21.1719H21.1719V18.8281C22.273 18.8281 23.5898 18.8281 24.6875 18.8281C25.3347 18.8281 25.8594 18.3034 25.8594 17.6562C25.8594 17.0091 25.3347 16.4844 24.6875 16.4844H23.5156V14.1406H27.0312C28.9698 14.1406 30.5469 12.5635 30.5469 10.625V3.51562C30.5469 1.57711 28.9698 0 27.0312 0H12.9688C11.0302 0 9.45312 1.57711 9.45312 3.51562V10.625C9.45312 12.5635 11.0302 14.1406 12.9688 14.1406H16.4844V16.4844H15.3125C14.6653 16.4844 14.1406 17.0091 14.1406 17.6562C14.1406 18.3034 14.6653 18.8281 15.3125 18.8281C16.4102 18.8281 17.727 18.8281 18.8281 18.8281V21.1719H8.20312C6.26461 21.1719 4.6875 22.749 4.6875 24.6875V25.8594H3.51562C1.57711 25.8594 0 27.4365 0 29.375V31.7188C0 33.6573 1.57711 35.2344 3.51562 35.2344H4.6875V37.6562H3.51562C2.86844 37.6562 2.34375 38.1809 2.34375 38.8281C2.34375 39.4753 2.86844 40 3.51562 40H8.20312C8.85031 40 9.375 39.4753 9.375 38.8281C9.375 38.1809 8.85031 37.6562 8.20312 37.6562H7.03125V35.2344H8.20312C10.1416 35.2344 11.7188 33.6573 11.7188 31.7188V29.375C11.7188 27.4365 10.1416 25.8594 8.20312 25.8594H7.03125V24.6875C7.03125 24.0413 7.55695 23.5156 8.20312 23.5156H18.8281V25.8594H17.6562C15.7177 25.8594 14.1406 27.4365 14.1406 29.375V31.7188C14.1406 33.6573 15.7177 35.2344 17.6562 35.2344H18.8281V37.6562H17.6562C17.0091 37.6562 16.4844 38.1809 16.4844 38.8281C16.4844 39.4753 17.0091 40 17.6562 40H22.3438C22.9909 40 23.5156 39.4753 23.5156 38.8281C23.5156 38.1809 22.9909 37.6562 22.3438 37.6562H21.1719V35.2344H22.3438C24.2823 35.2344 25.8594 33.6573 25.8594 31.7188V29.375C25.8594 27.4365 24.2823 25.8594 22.3438 25.8594H21.1719V23.5156H31.7969C32.443 23.5156 32.9688 24.0413 32.9688 24.6875V25.8594H31.7969C29.8584 25.8594 28.2812 27.4365 28.2812 29.375V31.7188C28.2812 33.6573 29.8584 35.2344 31.7969 35.2344H32.9688V37.6562H31.7969C31.1497 37.6562 30.625 38.1809 30.625 38.8281C30.625 39.4753 31.1497 40 31.7969 40H36.4844C37.1316 40 37.6562 39.4753 37.6562 38.8281C37.6562 38.1809 37.1316 37.6562 36.4844 37.6562H35.3125V35.2344H36.4844C38.4229 35.2344 40 33.6573 40 31.7188V29.375C40 27.4365 38.4229 25.8594 36.4844 25.8594ZM8.20312 28.2031C8.8493 28.2031 9.375 28.7288 9.375 29.375V31.7188C9.375 32.3649 8.8493 32.8906 8.20312 32.8906H3.51562C2.86945 32.8906 2.34375 32.3649 2.34375 31.7188V29.375C2.34375 28.7288 2.86945 28.2031 3.51562 28.2031H8.20312ZM12.9688 11.7969C12.3226 11.7969 11.7969 11.2712 11.7969 10.625V3.51562C11.7969 2.86945 12.3226 2.34375 12.9688 2.34375H27.0312C27.6774 2.34375 28.2031 2.86945 28.2031 3.51562V10.625C28.2031 11.2712 27.6774 11.7969 27.0312 11.7969C24.2156 11.7969 15.7743 11.7969 12.9688 11.7969ZM22.3438 28.2031C22.9899 28.2031 23.5156 28.7288 23.5156 29.375V31.7188C23.5156 32.3649 22.9899 32.8906 22.3438 32.8906H17.6562C17.0101 32.8906 16.4844 32.3649 16.4844 31.7188V29.375C16.4844 28.7288 17.0101 28.2031 17.6562 28.2031H22.3438ZM18.8281 16.4844V14.1406H21.1719V16.4844H18.8281ZM37.6562 31.7188C37.6562 32.3649 37.1305 32.8906 36.4844 32.8906H31.7969C31.1507 32.8906 30.625 32.3649 30.625 31.7188V29.375C30.625 28.7288 31.1507 28.2031 31.7969 28.2031H36.4844C37.1305 28.2031 37.6562 28.7288 37.6562 29.375V31.7188Z"/>
</mask>
<path d="M36.4844 25.8594H35.3125V24.6875C35.3125 22.749 33.7354 21.1719 31.7969 21.1719H21.1719V18.8281C22.273 18.8281 23.5898 18.8281 24.6875 18.8281C25.3347 18.8281 25.8594 18.3034 25.8594 17.6562C25.8594 17.0091 25.3347 16.4844 24.6875 16.4844H23.5156V14.1406H27.0312C28.9698 14.1406 30.5469 12.5635 30.5469 10.625V3.51562C30.5469 1.57711 28.9698 0 27.0312 0H12.9688C11.0302 0 9.45312 1.57711 9.45312 3.51562V10.625C9.45312 12.5635 11.0302 14.1406 12.9688 14.1406H16.4844V16.4844H15.3125C14.6653 16.4844 14.1406 17.0091 14.1406 17.6562C14.1406 18.3034 14.6653 18.8281 15.3125 18.8281C16.4102 18.8281 17.727 18.8281 18.8281 18.8281V21.1719H8.20312C6.26461 21.1719 4.6875 22.749 4.6875 24.6875V25.8594H3.51562C1.57711 25.8594 0 27.4365 0 29.375V31.7188C0 33.6573 1.57711 35.2344 3.51562 35.2344H4.6875V37.6562H3.51562C2.86844 37.6562 2.34375 38.1809 2.34375 38.8281C2.34375 39.4753 2.86844 40 3.51562 40H8.20312C8.85031 40 9.375 39.4753 9.375 38.8281C9.375 38.1809 8.85031 37.6562 8.20312 37.6562H7.03125V35.2344H8.20312C10.1416 35.2344 11.7188 33.6573 11.7188 31.7188V29.375C11.7188 27.4365 10.1416 25.8594 8.20312 25.8594H7.03125V24.6875C7.03125 24.0413 7.55695 23.5156 8.20312 23.5156H18.8281V25.8594H17.6562C15.7177 25.8594 14.1406 27.4365 14.1406 29.375V31.7188C14.1406 33.6573 15.7177 35.2344 17.6562 35.2344H18.8281V37.6562H17.6562C17.0091 37.6562 16.4844 38.1809 16.4844 38.8281C16.4844 39.4753 17.0091 40 17.6562 40H22.3438C22.9909 40 23.5156 39.4753 23.5156 38.8281C23.5156 38.1809 22.9909 37.6562 22.3438 37.6562H21.1719V35.2344H22.3438C24.2823 35.2344 25.8594 33.6573 25.8594 31.7188V29.375C25.8594 27.4365 24.2823 25.8594 22.3438 25.8594H21.1719V23.5156H31.7969C32.443 23.5156 32.9688 24.0413 32.9688 24.6875V25.8594H31.7969C29.8584 25.8594 28.2812 27.4365 28.2812 29.375V31.7188C28.2812 33.6573 29.8584 35.2344 31.7969 35.2344H32.9688V37.6562H31.7969C31.1497 37.6562 30.625 38.1809 30.625 38.8281C30.625 39.4753 31.1497 40 31.7969 40H36.4844C37.1316 40 37.6562 39.4753 37.6562 38.8281C37.6562 38.1809 37.1316 37.6562 36.4844 37.6562H35.3125V35.2344H36.4844C38.4229 35.2344 40 33.6573 40 31.7188V29.375C40 27.4365 38.4229 25.8594 36.4844 25.8594ZM8.20312 28.2031C8.8493 28.2031 9.375 28.7288 9.375 29.375V31.7188C9.375 32.3649 8.8493 32.8906 8.20312 32.8906H3.51562C2.86945 32.8906 2.34375 32.3649 2.34375 31.7188V29.375C2.34375 28.7288 2.86945 28.2031 3.51562 28.2031H8.20312ZM12.9688 11.7969C12.3226 11.7969 11.7969 11.2712 11.7969 10.625V3.51562C11.7969 2.86945 12.3226 2.34375 12.9688 2.34375H27.0312C27.6774 2.34375 28.2031 2.86945 28.2031 3.51562V10.625C28.2031 11.2712 27.6774 11.7969 27.0312 11.7969C24.2156 11.7969 15.7743 11.7969 12.9688 11.7969ZM22.3438 28.2031C22.9899 28.2031 23.5156 28.7288 23.5156 29.375V31.7188C23.5156 32.3649 22.9899 32.8906 22.3438 32.8906H17.6562C17.0101 32.8906 16.4844 32.3649 16.4844 31.7188V29.375C16.4844 28.7288 17.0101 28.2031 17.6562 28.2031H22.3438ZM18.8281 16.4844V14.1406H21.1719V16.4844H18.8281ZM37.6562 31.7188C37.6562 32.3649 37.1305 32.8906 36.4844 32.8906H31.7969C31.1507 32.8906 30.625 32.3649 30.625 31.7188V29.375C30.625 28.7288 31.1507 28.2031 31.7969 28.2031H36.4844C37.1305 28.2031 37.6562 28.7288 37.6562 29.375V31.7188Z" fill="#739AF0" stroke="#739AF0" stroke-width="2" mask="url(#path-2-inside-1)"/>
</svg>
