<svg width="40" height="40" viewBox="0 0 40 40" fill="none" xmlns="http://www.w3.org/2000/svg">
<path d="M37.6562 9.95312H38.1562V9.45312V3.59375C38.1562 2.67144 37.4067 1.92188 36.4844 1.92188H3.51562C2.59331 1.92188 1.84375 2.67144 1.84375 3.59375V9.45312V9.95312H2.34375H37.6562ZM2.34375 11.2969H1.84375V11.7969V36.4062C1.84375 37.3286 2.59331 38.0781 3.51562 38.0781H36.4844C37.4067 38.0781 38.1562 37.3286 38.1562 36.4062V11.7969V11.2969H37.6562H2.34375ZM3.51562 0.578125H36.4844C38.1467 0.578125 39.5 1.93138 39.5 3.59375V36.4062C39.5 38.0686 38.1467 39.4219 36.4844 39.4219H3.51562C1.85325 39.4219 0.5 38.0686 0.5 36.4062V3.59375C0.5 1.93138 1.85325 0.578125 3.51562 0.578125Z" fill="#739AF0" stroke="#739AF0"/>
<path d="M22.898 16.2197L22.898 16.2197C23.0442 15.8787 23.4392 15.7207 23.7803 15.8669C24.1213 16.013 24.2793 16.408 24.1331 16.7491L24.1331 16.7491L17.1019 33.1553L17.1019 33.1553C16.9558 33.4962 16.5609 33.6544 16.2196 33.5082C15.8786 33.362 15.7206 32.967 15.8668 32.626L15.8668 32.626L22.898 16.2197Z" fill="#739AF0" stroke="#739AF0"/>
<path d="M12.5491 19.4753L12.5491 19.4754L6.68969 24.1629L6.68962 24.163C6.35396 24.4314 6.35376 24.9435 6.68966 25.2122L6.68969 25.2122L12.5491 29.8997L12.5491 29.8997C12.8388 30.1316 13.2617 30.0845 13.4934 29.7949L13.4934 29.7948C13.7252 29.505 13.6782 29.0822 13.3885 28.8505L13.3884 28.8505L8.67296 25.078L8.18494 24.6876L8.67297 24.2971L13.3884 20.5247L13.3885 20.5247C13.6782 20.2929 13.7252 19.8702 13.4934 19.5803L12.5491 19.4753ZM12.5491 19.4753C12.8386 19.2437 13.2615 19.2905 13.4934 19.5803L12.5491 19.4753Z" fill="#739AF0" stroke="#739AF0"/>
<path d="M33.6231 23.7725L27.7637 19.085C27.2583 18.6806 26.5208 18.7626 26.1166 19.268C25.7123 19.7734 25.7942 20.5109 26.2996 20.9151L31.0151 24.6876L26.2996 28.46C25.7942 28.8643 25.7123 29.6017 26.1166 30.1071C26.5214 30.613 27.259 30.694 27.7637 30.2901L33.6231 25.6026C34.2089 25.1341 34.2093 24.2414 33.6231 23.7725Z" fill="#739AF0"/>
<path d="M5.9375 7.10938C6.58471 7.10938 7.10938 6.58471 7.10938 5.9375C7.10938 5.29029 6.58471 4.76562 5.9375 4.76562C5.29029 4.76562 4.76562 5.29029 4.76562 5.9375C4.76562 6.58471 5.29029 7.10938 5.9375 7.10938Z" fill="#739AF0"/>
<path d="M10.625 7.10938C11.2722 7.10938 11.7969 6.58471 11.7969 5.9375C11.7969 5.29029 11.2722 4.76562 10.625 4.76562C9.97779 4.76562 9.45312 5.29029 9.45312 5.9375C9.45312 6.58471 9.97779 7.10938 10.625 7.10938Z" fill="#739AF0"/>
<path d="M15.3125 7.10938C15.9597 7.10938 16.4844 6.58471 16.4844 5.9375C16.4844 5.29029 15.9597 4.76562 15.3125 4.76562C14.6653 4.76562 14.1406 5.29029 14.1406 5.9375C14.1406 6.58471 14.6653 7.10938 15.3125 7.10938Z" fill="#739AF0"/>
</svg>
