<svg width="40" height="40" viewBox="0 0 40 40" fill="none" xmlns="http://www.w3.org/2000/svg">
<mask id="path-2-inside-1" fill="white">
<path d="M36.4844 0.078125H3.51562C1.57711 0.078125 0 1.65523 0 3.59375V31.7188C0 33.6573 1.57711 35.2344 3.51562 35.2344C10.509 35.2344 9.88188 35.2356 9.9707 35.2319L12.5424 37.8036C12.9996 38.2609 13.7422 38.2612 14.1997 37.8036L15.4532 36.55C15.7892 36.7109 16.1333 36.8537 16.4843 36.9778V38.75C16.4843 39.3972 17.009 39.9219 17.6562 39.9219H22.3437C22.9909 39.9219 23.5155 39.3972 23.5155 38.75V36.9778C23.8666 36.8537 24.2106 36.7109 24.5466 36.55L25.8002 37.8036C26.2573 38.2609 26.9999 38.2612 27.4574 37.8036L30.0268 35.2344H36.4844C38.4229 35.2344 40 33.6573 40 31.7188V3.59375C40 1.65523 38.4229 0.078125 36.4844 0.078125ZM3.51562 2.42188H36.4844C37.1305 2.42188 37.6562 2.94758 37.6562 3.59375V9.45312H2.34375V3.59375C2.34375 2.94758 2.86945 2.42188 3.51562 2.42188ZM26.6289 35.3177L25.5904 34.2791C25.2119 33.9005 24.6249 33.8268 24.1646 34.0995C23.5047 34.4903 22.7939 34.7852 22.052 34.9759C21.534 35.1091 21.1719 35.5761 21.1719 36.1109V37.5781H18.8281V36.1109C18.8281 35.5761 18.466 35.1091 17.948 34.976C17.2061 34.7853 16.4953 34.4904 15.8354 34.0995C15.3748 33.8266 14.788 33.9007 14.4096 34.2792L13.3711 35.3177L11.7135 33.6602L12.752 32.6216C13.1305 32.2432 13.2045 31.6564 12.9317 31.1959C12.5409 30.5359 12.246 29.8252 12.0552 29.0833C11.9222 28.5652 11.4552 28.2031 10.9203 28.2031H9.45312V25.8594H10.9203C11.4552 25.8594 11.9221 25.4973 12.0552 24.9792C12.2459 24.2373 12.5409 23.5266 12.9317 22.8666C13.2045 22.4061 13.1305 21.8193 12.752 21.4409L11.7135 20.4023L13.3711 18.7448L14.4096 19.7833C14.788 20.1618 15.3749 20.2356 15.8354 19.963C16.4953 19.5721 17.2061 19.2773 17.948 19.0865C18.466 18.9534 18.8281 18.4863 18.8281 17.9516V16.4844H21.1719V17.9516C21.1719 18.4864 21.534 18.9534 22.052 19.0865C22.7939 19.2772 23.5047 19.5721 24.1646 19.963C24.625 20.2357 25.2119 20.1617 25.5904 19.7833L26.6289 18.7448L28.2865 20.4023L27.248 21.4409C26.8695 21.8193 26.7955 22.4061 27.0683 22.8666C27.4591 23.5266 27.754 24.2373 27.9448 24.9792C28.0779 25.4973 28.5449 25.8594 29.0797 25.8594H30.5469V28.2031H29.0797C28.5448 28.2031 28.0779 28.5652 27.9448 29.0833C27.7541 29.8252 27.4591 30.5359 27.0683 31.1959C26.7955 31.6564 26.8695 32.2432 27.248 32.6216L28.2865 33.6602L26.6289 35.3177ZM36.4844 32.8906H30.8259C30.7666 32.8226 30.8935 32.9526 29.5188 31.578C29.6798 31.242 29.8225 30.8979 29.9466 30.5469H31.7188C32.3659 30.5469 32.8906 30.0222 32.8906 29.375V24.6875C32.8906 24.0403 32.3659 23.5156 31.7188 23.5156H29.9466C29.8224 23.1646 29.6797 22.8205 29.5187 22.4845L30.7723 21.231C31.2297 20.7738 31.23 20.0312 30.7723 19.5737L27.4574 16.2588C27.0002 15.8015 26.2577 15.8012 25.8002 16.2588L24.5466 17.5124C24.2106 17.3515 23.8666 17.2087 23.5155 17.0846V15.3125C23.5155 14.6653 22.9909 14.1406 22.3437 14.1406H17.6562C17.009 14.1406 16.4843 14.6653 16.4843 15.3125V17.0847C16.1333 17.2088 15.7892 17.3516 15.4532 17.5125L14.1997 16.2589C13.7425 15.8016 12.9999 15.8012 12.5424 16.2589L9.2275 19.5738C8.77016 20.031 8.76984 20.7736 9.2275 21.2311L10.4811 22.4846C10.3202 22.8206 10.1774 23.1647 10.0533 23.5157H8.28125C7.63406 23.5157 7.10938 24.0404 7.10938 24.6876V29.3751C7.10938 30.0223 7.63406 30.547 8.28125 30.547H10.0534C10.1776 30.898 10.3203 31.242 10.4813 31.578C9.10656 32.9527 9.23352 32.8226 9.17414 32.8907H3.51562C2.86945 32.8907 2.34375 32.365 2.34375 31.7188V11.7969H37.6562V31.7188C37.6562 32.3649 37.1305 32.8906 36.4844 32.8906Z"/>
</mask>
<path d="M36.4844 0.078125H3.51562C1.57711 0.078125 0 1.65523 0 3.59375V31.7188C0 33.6573 1.57711 35.2344 3.51562 35.2344C10.509 35.2344 9.88188 35.2356 9.9707 35.2319L12.5424 37.8036C12.9996 38.2609 13.7422 38.2612 14.1997 37.8036L15.4532 36.55C15.7892 36.7109 16.1333 36.8537 16.4843 36.9778V38.75C16.4843 39.3972 17.009 39.9219 17.6562 39.9219H22.3437C22.9909 39.9219 23.5155 39.3972 23.5155 38.75V36.9778C23.8666 36.8537 24.2106 36.7109 24.5466 36.55L25.8002 37.8036C26.2573 38.2609 26.9999 38.2612 27.4574 37.8036L30.0268 35.2344H36.4844C38.4229 35.2344 40 33.6573 40 31.7188V3.59375C40 1.65523 38.4229 0.078125 36.4844 0.078125ZM3.51562 2.42188H36.4844C37.1305 2.42188 37.6562 2.94758 37.6562 3.59375V9.45312H2.34375V3.59375C2.34375 2.94758 2.86945 2.42188 3.51562 2.42188ZM26.6289 35.3177L25.5904 34.2791C25.2119 33.9005 24.6249 33.8268 24.1646 34.0995C23.5047 34.4903 22.7939 34.7852 22.052 34.9759C21.534 35.1091 21.1719 35.5761 21.1719 36.1109V37.5781H18.8281V36.1109C18.8281 35.5761 18.466 35.1091 17.948 34.976C17.2061 34.7853 16.4953 34.4904 15.8354 34.0995C15.3748 33.8266 14.788 33.9007 14.4096 34.2792L13.3711 35.3177L11.7135 33.6602L12.752 32.6216C13.1305 32.2432 13.2045 31.6564 12.9317 31.1959C12.5409 30.5359 12.246 29.8252 12.0552 29.0833C11.9222 28.5652 11.4552 28.2031 10.9203 28.2031H9.45312V25.8594H10.9203C11.4552 25.8594 11.9221 25.4973 12.0552 24.9792C12.2459 24.2373 12.5409 23.5266 12.9317 22.8666C13.2045 22.4061 13.1305 21.8193 12.752 21.4409L11.7135 20.4023L13.3711 18.7448L14.4096 19.7833C14.788 20.1618 15.3749 20.2356 15.8354 19.963C16.4953 19.5721 17.2061 19.2773 17.948 19.0865C18.466 18.9534 18.8281 18.4863 18.8281 17.9516V16.4844H21.1719V17.9516C21.1719 18.4864 21.534 18.9534 22.052 19.0865C22.7939 19.2772 23.5047 19.5721 24.1646 19.963C24.625 20.2357 25.2119 20.1617 25.5904 19.7833L26.6289 18.7448L28.2865 20.4023L27.248 21.4409C26.8695 21.8193 26.7955 22.4061 27.0683 22.8666C27.4591 23.5266 27.754 24.2373 27.9448 24.9792C28.0779 25.4973 28.5449 25.8594 29.0797 25.8594H30.5469V28.2031H29.0797C28.5448 28.2031 28.0779 28.5652 27.9448 29.0833C27.7541 29.8252 27.4591 30.5359 27.0683 31.1959C26.7955 31.6564 26.8695 32.2432 27.248 32.6216L28.2865 33.6602L26.6289 35.3177ZM36.4844 32.8906H30.8259C30.7666 32.8226 30.8935 32.9526 29.5188 31.578C29.6798 31.242 29.8225 30.8979 29.9466 30.5469H31.7188C32.3659 30.5469 32.8906 30.0222 32.8906 29.375V24.6875C32.8906 24.0403 32.3659 23.5156 31.7188 23.5156H29.9466C29.8224 23.1646 29.6797 22.8205 29.5187 22.4845L30.7723 21.231C31.2297 20.7738 31.23 20.0312 30.7723 19.5737L27.4574 16.2588C27.0002 15.8015 26.2577 15.8012 25.8002 16.2588L24.5466 17.5124C24.2106 17.3515 23.8666 17.2087 23.5155 17.0846V15.3125C23.5155 14.6653 22.9909 14.1406 22.3437 14.1406H17.6562C17.009 14.1406 16.4843 14.6653 16.4843 15.3125V17.0847C16.1333 17.2088 15.7892 17.3516 15.4532 17.5125L14.1997 16.2589C13.7425 15.8016 12.9999 15.8012 12.5424 16.2589L9.2275 19.5738C8.77016 20.031 8.76984 20.7736 9.2275 21.2311L10.4811 22.4846C10.3202 22.8206 10.1774 23.1647 10.0533 23.5157H8.28125C7.63406 23.5157 7.10938 24.0404 7.10938 24.6876V29.3751C7.10938 30.0223 7.63406 30.547 8.28125 30.547H10.0534C10.1776 30.898 10.3203 31.242 10.4813 31.578C9.10656 32.9527 9.23352 32.8226 9.17414 32.8907H3.51562C2.86945 32.8907 2.34375 32.365 2.34375 31.7188V11.7969H37.6562V31.7188C37.6562 32.3649 37.1305 32.8906 36.4844 32.8906Z" fill="#739AF0" stroke="#739AF0" stroke-width="2" mask="url(#path-2-inside-1)"/>
<path d="M14.6406 27.0312C14.6406 24.0765 17.0453 21.6719 20 21.6719C22.9547 21.6719 25.3594 24.0765 25.3594 27.0312C25.3594 29.986 22.9547 32.3906 20 32.3906C17.0453 32.3906 14.6406 29.986 14.6406 27.0312ZM15.9844 27.0312C15.9844 29.2459 17.7853 31.0469 20 31.0469C22.2147 31.0469 24.0156 29.2459 24.0156 27.0312C24.0156 24.8166 22.2147 23.0156 20 23.0156C17.7853 23.0156 15.9844 24.8166 15.9844 27.0312Z" fill="#739AF0" stroke="#739AF0"/>
<path d="M6.60938 5.9375C6.60938 6.30857 6.30857 6.60938 5.9375 6.60938C5.56643 6.60938 5.26562 6.30857 5.26562 5.9375C5.26562 5.56643 5.56643 5.26562 5.9375 5.26562C6.30857 5.26562 6.60938 5.56643 6.60938 5.9375Z" fill="#739AF0" stroke="#739AF0"/>
<path d="M10.625 7.10938C11.2722 7.10938 11.7969 6.58471 11.7969 5.9375C11.7969 5.29029 11.2722 4.76562 10.625 4.76562C9.97779 4.76562 9.45312 5.29029 9.45312 5.9375C9.45312 6.58471 9.97779 7.10938 10.625 7.10938Z" fill="#739AF0"/>
<path d="M15.3125 7.10938C15.9597 7.10938 16.4844 6.58471 16.4844 5.9375C16.4844 5.29029 15.9597 4.76562 15.3125 4.76562C14.6653 4.76562 14.1406 5.29029 14.1406 5.9375C14.1406 6.58471 14.6653 7.10938 15.3125 7.10938Z" fill="#739AF0"/>
</svg>
