<svg width="270" height="189" viewBox="0 0 270 189" fill="none" xmlns="http://www.w3.org/2000/svg">
<path d="M177.661 56.8393H207.107C208.064 56.8393 208.839 56.0637 208.839 55.1071V25.6607C208.839 20.8779 212.717 17 217.5 17C222.283 17 226.161 20.8779 226.161 25.6607V55.1071C226.161 56.0637 226.936 56.8393 227.893 56.8393H257.339C262.122 56.8393 266 60.7172 266 65.5C266 70.2828 262.122 74.1607 257.339 74.1607H227.893C226.936 74.1607 226.161 74.9363 226.161 75.8929V105.339C226.161 110.122 222.283 114 217.5 114C212.717 114 208.839 110.122 208.839 105.339V75.8929C208.839 74.9363 208.064 74.1607 207.107 74.1607H177.661C172.878 74.1607 169 70.2828 169 65.5C169 60.7172 172.878 56.8393 177.661 56.8393Z" fill="url(#paint0_linear)"/>
<path d="M101.571 165.429H113.714C114.109 165.429 114.429 165.109 114.429 164.714V152.571C114.429 150.599 116.028 149 118 149C119.972 149 121.571 150.599 121.571 152.571V164.714C121.571 165.109 121.891 165.429 122.286 165.429H134.429C136.401 165.429 138 167.028 138 169C138 170.972 136.401 172.571 134.429 172.571H122.286C121.891 172.571 121.571 172.891 121.571 173.286V185.429C121.571 187.401 119.972 189 118 189C116.028 189 114.429 187.401 114.429 185.429V173.286C114.429 172.891 114.109 172.571 113.714 172.571H101.571C99.5991 172.571 98 170.972 98 169C98 167.028 99.5991 165.429 101.571 165.429Z" fill="url(#paint1_linear)"/>
<path d="M1.875 76.375H8.25C8.45709 76.375 8.625 76.5429 8.625 76.75V83.125C8.625 84.1605 9.46454 85 10.5 85C11.5355 85 12.375 84.1605 12.375 83.125V76.75C12.375 76.5429 12.5429 76.375 12.75 76.375H19.125C20.1605 76.375 21 75.5355 21 74.5C21 73.4645 20.1605 72.625 19.125 72.625H12.75C12.5429 72.625 12.375 72.4571 12.375 72.25V65.875C12.375 64.8395 11.5355 64 10.5 64C9.46454 64 8.625 64.8395 8.625 65.875V72.25C8.625 72.4571 8.45709 72.625 8.25 72.625H1.875C0.839539 72.625 0 73.4645 0 74.5C0 75.5355 0.839539 76.375 1.875 76.375Z" fill="url(#paint2_linear)"/>
<path d="M245.411 160.089H253.607C253.873 160.089 254.089 159.873 254.089 159.607V151.411C254.089 150.079 255.169 149 256.5 149C257.831 149 258.911 150.079 258.911 151.411V159.607C258.911 159.873 259.127 160.089 259.393 160.089H267.589C268.921 160.089 270 161.169 270 162.5C270 163.831 268.921 164.911 267.589 164.911H259.393C259.127 164.911 258.911 165.127 258.911 165.393V173.589C258.911 174.921 257.831 176 256.5 176C255.169 176 254.089 174.921 254.089 173.589V165.393C254.089 165.127 253.873 164.911 253.607 164.911H245.411C244.079 164.911 243 163.831 243 162.5C243 161.169 244.079 160.089 245.411 160.089Z" fill="url(#paint3_linear)"/>
<path d="M103.125 20.625H113.75C114.095 20.625 114.375 20.9048 114.375 21.25V31.875C114.375 33.6008 115.774 35 117.5 35C119.226 35 120.625 33.6008 120.625 31.875V21.25C120.625 20.9048 120.905 20.625 121.25 20.625H131.875C133.601 20.625 135 19.2258 135 17.5C135 15.7742 133.601 14.375 131.875 14.375H121.25C120.905 14.375 120.625 14.0952 120.625 13.75V3.125C120.625 1.39923 119.226 0 117.5 0C115.774 0 114.375 1.39923 114.375 3.125V13.75C114.375 14.0952 114.095 14.375 113.75 14.375H103.125C101.399 14.375 100 15.7742 100 17.5C100 19.2258 101.399 20.625 103.125 20.625Z" fill="url(#paint4_linear)"/>
<defs>
<linearGradient id="paint0_linear" x1="217.5" y1="388.719" x2="217.5" y2="17" gradientUnits="userSpaceOnUse">
<stop stop-color="#96BEF9"/>
<stop offset="1" stop-color="#F4F6FB"/>
</linearGradient>
<linearGradient id="paint1_linear" x1="118" y1="302.286" x2="118" y2="149" gradientUnits="userSpaceOnUse">
<stop stop-color="#96BEF9"/>
<stop offset="1" stop-color="#F4F6FB"/>
</linearGradient>
<linearGradient id="paint2_linear" x1="10.5" y1="4.52473" x2="10.5" y2="85" gradientUnits="userSpaceOnUse">
<stop stop-color="#96BEF9"/>
<stop offset="1" stop-color="#F4F6FB"/>
</linearGradient>
<linearGradient id="paint3_linear" x1="256.5" y1="252.468" x2="256.5" y2="149" gradientUnits="userSpaceOnUse">
<stop stop-color="#96BEF9"/>
<stop offset="1" stop-color="#F4F6FB"/>
</linearGradient>
<linearGradient id="paint4_linear" x1="117.5" y1="-99.1254" x2="117.5" y2="35" gradientUnits="userSpaceOnUse">
<stop stop-color="#96BEF9"/>
<stop offset="1" stop-color="#F4F6FB"/>
</linearGradient>
</defs>
</svg>
