<svg width="153" height="180" viewBox="0 0 153 180" fill="none" xmlns="http://www.w3.org/2000/svg">
<path d="M88.3393 39.8393H58.8929C57.9363 39.8393 57.1607 39.0637 57.1607 38.1071V8.66071C57.1607 3.87787 53.2828 0 48.5 0C43.7172 0 39.8393 3.87787 39.8393 8.66071V38.1071C39.8393 39.0637 39.0637 39.8393 38.1071 39.8393H8.66071C3.87787 39.8393 0 43.7172 0 48.5C0 53.2828 3.87787 57.1607 8.66071 57.1607H38.1071C39.0637 57.1607 39.8393 57.9363 39.8393 58.8929V88.3393C39.8393 93.1221 43.7172 97 48.5 97C53.2828 97 57.1607 93.1221 57.1607 88.3393V58.8929C57.1607 57.9363 57.9363 57.1607 58.8929 57.1607H88.3393C93.1221 57.1607 97 53.2828 97 48.5C97 43.7172 93.1221 39.8393 88.3393 39.8393Z" fill="url(#paint0_linear)"/>
<path d="M149.429 89.4286H137.286C136.891 89.4286 136.571 89.1087 136.571 88.7143V76.5714C136.571 74.5991 134.972 73 133 73C131.028 73 129.429 74.5991 129.429 76.5714V88.7143C129.429 89.1087 129.109 89.4286 128.714 89.4286H116.571C114.599 89.4286 113 91.0277 113 93C113 94.9723 114.599 96.5714 116.571 96.5714H128.714C129.109 96.5714 129.429 96.8913 129.429 97.2857V109.429C129.429 111.401 131.028 113 133 113C134.972 113 136.571 111.401 136.571 109.429V97.2857C136.571 96.8913 136.891 96.5714 137.286 96.5714H149.429C151.401 96.5714 153 94.9723 153 93C153 91.0277 151.401 89.4286 149.429 89.4286Z" fill="url(#paint1_linear)"/>
<path d="M31.875 159.375H21.25C20.9048 159.375 20.625 159.095 20.625 158.75V148.125C20.625 146.399 19.2258 145 17.5 145C15.7742 145 14.375 146.399 14.375 148.125V158.75C14.375 159.095 14.0952 159.375 13.75 159.375H3.125C1.39923 159.375 0 160.774 0 162.5C0 164.226 1.39923 165.625 3.125 165.625H13.75C14.0952 165.625 14.375 165.905 14.375 166.25V176.875C14.375 178.601 15.7742 180 17.5 180C19.2258 180 20.625 178.601 20.625 176.875V166.25C20.625 165.905 20.9048 165.625 21.25 165.625H31.875C33.6008 165.625 35 164.226 35 162.5C35 160.774 33.6008 159.375 31.875 159.375Z" fill="url(#paint2_linear)"/>
<defs>
<linearGradient id="paint0_linear" x1="48.5" y1="371.719" x2="48.4999" y2="-1.19009e-05" gradientUnits="userSpaceOnUse">
<stop stop-color="#96BEF9"/>
<stop offset="1" stop-color="#F4F6FB"/>
</linearGradient>
<linearGradient id="paint1_linear" x1="133" y1="226.286" x2="133" y2="73" gradientUnits="userSpaceOnUse">
<stop stop-color="#96BEF9"/>
<stop offset="1" stop-color="#F4F6FB"/>
</linearGradient>
<linearGradient id="paint2_linear" x1="17.5" y1="279.125" x2="17.5" y2="145" gradientUnits="userSpaceOnUse">
<stop stop-color="#96BEF9"/>
<stop offset="1" stop-color="#F4F6FB"/>
</linearGradient>
</defs>
</svg>
