<svg width="475" height="179" viewBox="0 0 475 179" fill="none" xmlns="http://www.w3.org/2000/svg">
<g clip-path="url(#clip0)">
<path d="M56.6259 115.033V173.318C56.6259 176.892 60.5312 179.092 63.6927 177.259L112.788 148.116C115.764 146.375 115.764 142.067 112.788 140.326L63.6927 111.184C60.6242 109.351 56.6259 111.55 56.6259 115.033Z" fill="#E54A1E"/>
<path d="M56.6259 4.51061V62.7959C56.6259 66.3699 60.5312 68.5694 63.6927 66.7367L112.788 37.5939C115.764 35.8526 115.764 31.5453 112.788 29.8043L63.6927 0.661579C60.6242 -1.17129 56.6259 1.02817 56.6259 4.51061Z" fill="#E54A1E"/>
<path d="M0 59.7707V118.056C0 121.63 3.90531 123.83 7.06677 121.997L56.162 92.854C59.1378 91.1128 59.1378 86.8055 56.162 85.0642L7.06677 55.9216C3.90531 54.0887 0 56.2882 0 59.7707Z" fill="#E54A1E"/>
<path d="M113.347 59.7707V118.056C113.347 121.63 117.253 123.83 120.414 121.997L169.51 92.854C172.485 91.1128 172.485 86.8055 169.51 85.0642L120.414 55.9216C117.253 54.0887 113.347 56.2882 113.347 59.7707Z" fill="#E54A1E"/>
<path d="M237.013 39.4748C239.523 40.7579 241.476 42.4991 242.871 44.8817C244.265 47.1729 244.916 49.9221 244.916 53.1298C244.916 56.2458 244.265 58.9949 242.871 61.3776C241.476 63.7605 239.523 65.5017 237.013 66.7847C234.502 68.0677 231.434 68.6174 227.993 68.6174H220.183V80.348H211.163V37.6419H228.086C231.527 37.5505 234.502 38.1918 237.013 39.4748ZM233.665 58.5367C235.06 57.2537 235.804 55.421 235.804 53.0381C235.804 50.6555 235.06 48.8225 233.665 47.5395C232.271 46.2565 230.225 45.6151 227.435 45.6151H220.09V60.4613H227.435C230.225 60.4613 232.271 59.8197 233.665 58.5367Z" fill="#004A97"/>
<path d="M276.717 71.0904H258.586L255.145 80.2547H245.94L263.328 37.5488H272.254L289.736 80.2547H280.25L276.717 71.0904ZM273.928 63.5754L267.791 47.263L261.654 63.5754H273.928Z" fill="#004A97"/>
<path d="M296.244 37.5488H327.675V45.4301H305.171V54.2278H315.956C320.7 54.2278 324.232 55.3277 326.744 57.4355C329.253 59.635 330.463 62.6592 330.463 66.7831C330.463 71.0904 329.069 74.3895 326.373 76.6807C323.581 79.0633 319.77 80.2547 314.749 80.2547H296.244V37.5488ZM314.19 72.9231C316.515 72.9231 318.281 72.4648 319.491 71.4569C320.7 70.4488 321.351 68.9826 321.351 67.0579C321.351 63.3006 318.932 61.4676 314.19 61.4676H305.171V72.9231H314.19Z" fill="#004A97"/>
<path d="M346.362 78.148C343.106 76.2236 340.597 73.5658 338.736 70.2667C336.878 66.8759 335.948 63.1186 335.948 58.9944C335.948 54.8705 336.878 51.0215 338.736 47.7224C340.597 44.3316 343.106 41.7655 346.362 39.8409C349.617 37.9165 353.244 37 357.334 37C361.425 37 365.052 37.9165 368.212 39.8409C371.375 41.7655 373.979 44.4233 375.837 47.7224C377.698 51.1132 378.628 54.8705 378.628 58.9944C378.628 63.1186 377.698 66.9674 375.837 70.2667C373.979 73.6576 371.467 76.2236 368.212 78.148C364.959 80.0726 361.333 80.9888 357.334 80.9888C353.244 80.9888 349.617 79.9809 346.362 78.148ZM363.565 70.8164C365.423 69.6251 366.912 68.0672 367.935 65.9595C368.958 63.8517 369.514 61.5605 369.514 58.9027C369.514 56.2453 368.958 53.8624 367.935 51.8463C366.912 49.7385 365.423 48.1806 363.565 46.9893C361.704 45.7977 359.659 45.248 357.334 45.248C355.009 45.248 352.964 45.7977 351.103 46.9893C349.245 48.1806 347.756 49.7385 346.733 51.8463C345.711 53.9541 345.152 56.2453 345.152 58.9027C345.152 61.5605 345.711 63.9434 346.733 65.9595C347.756 68.0672 349.245 69.6251 351.103 70.8164C352.964 72.008 355.009 72.5577 357.334 72.5577C359.567 72.5577 361.704 72.008 363.565 70.8164Z" fill="#004A97"/>
<path d="M416.192 45.6135H403.73V80.2547H394.806V45.6135H382.344V37.5488H416.192V45.6135Z" fill="#004A97"/>
<path d="M447.344 71.0904H429.21L425.77 80.2547H416.564L433.952 37.5488H442.879L460.362 80.2547H450.876L447.344 71.0904ZM444.46 63.5754L438.324 47.263L432.186 63.5754H444.46Z" fill="#004A97"/>
<path d="M236.736 99.4074C239.246 100.69 241.199 102.432 242.594 104.815C243.988 107.105 244.64 109.855 244.64 113.062C244.64 116.178 243.988 118.927 242.594 121.31C241.199 123.693 239.246 125.434 236.736 126.717C234.225 128 231.157 128.55 227.716 128.55H219.906V140.281H210.886V97.5747H227.809C231.25 97.5747 234.225 98.1244 236.736 99.4074ZM233.481 118.47C234.876 117.187 235.62 115.354 235.62 112.971C235.62 110.588 234.876 108.755 233.481 107.472C232.087 106.189 230.041 105.548 227.251 105.548H219.906V120.394H227.251C229.948 120.394 231.994 119.752 233.481 118.47Z" fill="#004A97"/>
<path d="M261.376 138.082C258.121 136.157 255.611 133.499 253.751 130.2C251.892 126.809 250.962 123.052 250.962 118.928C250.962 114.712 251.892 110.955 253.751 107.656C255.611 104.265 258.121 101.699 261.376 99.7745C264.63 97.8501 268.257 96.9336 272.348 96.9336C276.439 96.9336 280.066 97.8501 283.226 99.7745C286.481 101.699 288.993 104.357 290.851 107.656C292.712 111.047 293.642 114.804 293.642 118.928C293.642 123.144 292.712 126.901 290.851 130.2C288.993 133.591 286.481 136.157 283.226 138.082C279.973 140.006 276.346 140.922 272.348 140.922C268.257 140.922 264.63 140.006 261.376 138.082ZM278.578 130.842C280.437 129.65 281.926 128.092 282.949 125.984C283.972 123.877 284.528 121.586 284.528 118.928C284.528 116.27 283.972 113.888 282.949 111.872C281.926 109.764 280.437 108.206 278.578 107.014C276.718 105.823 274.673 105.273 272.348 105.273C270.023 105.273 267.978 105.823 266.118 107.014C264.258 108.206 262.771 109.764 261.748 111.872C260.725 113.979 260.167 116.27 260.167 118.928C260.167 121.586 260.725 123.968 261.748 125.984C262.771 128.092 264.258 129.65 266.118 130.842C267.978 132.033 270.023 132.583 272.348 132.583C274.58 132.583 276.718 131.941 278.578 130.842Z" fill="#004A97"/>
<path d="M310.751 138.173C307.495 136.249 304.986 133.683 303.218 130.292C301.36 126.901 300.429 123.144 300.429 118.928C300.429 114.713 301.36 110.864 303.218 107.564C305.079 104.174 307.588 101.608 310.751 99.6832C314.006 97.7585 317.537 96.8423 321.628 96.8423C324.975 96.8423 328.046 97.4837 330.835 98.7667C333.531 100.05 335.856 101.974 337.717 104.357L331.95 110.222C329.348 106.923 326.001 105.182 322.187 105.182C319.77 105.182 317.63 105.732 315.772 106.923C313.911 108.114 312.424 109.672 311.309 111.78C310.284 113.888 309.728 116.179 309.728 118.837C309.728 121.494 310.284 123.877 311.309 125.893C312.332 128.001 313.819 129.559 315.772 130.75C317.63 131.942 319.862 132.492 322.187 132.492C326.093 132.492 329.348 130.842 331.95 127.451L337.717 133.316C335.856 135.791 333.531 137.715 330.835 138.998C328.046 140.281 324.975 140.923 321.628 140.923C317.537 140.923 313.911 140.006 310.751 138.173Z" fill="#004A97"/>
<path d="M353.244 138.173C349.991 136.249 347.479 133.683 345.713 130.292C343.852 126.901 342.922 123.144 342.922 118.928C342.922 114.713 343.852 110.864 345.713 107.564C347.571 104.174 350.083 101.608 353.244 99.6832C356.499 97.7585 360.033 96.8423 364.124 96.8423C367.471 96.8423 370.539 97.4837 373.33 98.7667C376.027 100.05 378.351 101.974 380.21 104.357L374.445 110.222C371.841 106.923 368.494 105.182 364.683 105.182C362.263 105.182 360.125 105.732 358.265 106.923C356.406 108.114 354.917 109.672 353.802 111.78C352.78 113.888 352.221 116.179 352.221 118.837C352.221 121.494 352.78 123.877 353.802 125.893C354.825 128.001 356.314 129.559 358.265 130.75C360.125 131.942 362.358 132.492 364.683 132.492C368.586 132.492 371.841 130.842 374.445 127.451L380.21 133.316C378.351 135.791 376.027 137.715 373.33 138.998C370.539 140.281 367.471 140.923 364.124 140.923C360.033 140.923 356.406 140.006 353.244 138.173Z" fill="#004A97"/>
<path d="M388.486 97.5747H397.41V125.434L416.008 97.5747H424.468V140.281H415.636V112.513L397.039 140.281H388.486V97.5747Z" fill="#004A97"/>
<path d="M436.743 97.5747H445.667V125.434L464.265 97.5747H472.726V140.281H463.801V112.513L445.204 140.281H436.648V97.5747H436.743Z" fill="#004A97"/>
</g>
<defs>
<clipPath id="clip0">
<rect width="475" height="179" fill="white"/>
</clipPath>
</defs>
</svg>
